<svg width="163" height="163" viewBox="0 0 163 163" fill="none" xmlns="http://www.w3.org/2000/svg">
<g clip-path="url(#clip0_416:7434)">
<path d="M45.3795 39.559L45.7144 39.894L43.9393 41.4979L43.6081 41.1667L45.3795 39.559Z" fill="#0F5156"/>
<path d="M50.1764 32.6855L50.6193 32.3841L52.9154 35.8339C53.1007 36.0971 53.2207 36.4007 53.2652 36.7196C53.2956 36.9867 53.2436 37.2568 53.1164 37.4936C52.9735 37.7342 52.7727 37.935 52.5321 38.0779C52.3068 38.2332 52.0502 38.3373 51.7804 38.3831C51.5377 38.4213 51.2891 38.3917 51.0621 38.2975C50.8344 38.1986 50.6413 38.0341 50.5076 37.8248L50.9505 37.5234C51.0371 37.6584 51.1631 37.7637 51.3115 37.8248C51.4627 37.8849 51.628 37.9004 51.7878 37.8695C51.968 37.8424 52.1397 37.775 52.2902 37.6723C52.4505 37.576 52.5847 37.4418 52.681 37.2815C52.76 37.116 52.7873 36.9305 52.7591 36.7493C52.7198 36.5183 52.6281 36.2994 52.4912 36.1092L50.1764 32.6855Z" fill="#0F5156"/>
<path d="M56.5103 29.1278L56.9718 28.8896L58.7134 32.2687C58.8842 32.5938 58.9639 32.959 58.9442 33.3256C58.9222 33.6823 58.8024 34.0261 58.5981 34.3193C58.3622 34.6368 58.056 34.8955 57.7035 35.0749C57.351 35.2544 56.9617 35.3499 56.5662 35.3538C56.2034 35.3489 55.8492 35.2433 55.543 35.0488C55.2367 34.8543 54.9906 34.5785 54.832 34.2523L53.0903 30.8732L53.5592 30.635L55.2823 33.9806C55.4052 34.2331 55.591 34.4497 55.8219 34.6095C56.0517 34.7582 56.3186 34.8394 56.5922 34.844C56.8963 34.8488 57.1964 34.7744 57.463 34.6281C57.7347 34.4959 57.9689 34.2976 58.1441 34.0513C58.2994 33.8249 58.3872 33.5591 58.3971 33.2847C58.4055 33.0012 58.3401 32.7203 58.2073 32.4697L56.5103 29.1278Z" fill="#0F5156"/>
<path d="M63.2462 32.5219L61.6646 33.0987L59.6997 27.7026L61.3743 27.0922C61.8315 26.9112 62.3288 26.856 62.8145 26.9322C63.2604 27.0133 63.6707 27.2289 63.9905 27.55C64.3625 27.925 64.6427 28.381 64.8092 28.8823C65.0045 29.3788 65.0834 29.9135 65.04 30.4453C65.0013 30.909 64.8207 31.3495 64.5227 31.7069C64.1751 32.0847 63.7352 32.3656 63.2462 32.5219V32.5219ZM61.9958 32.4772L63.0527 32.0902C63.4638 31.9564 63.8323 31.7163 64.1208 31.3943C64.3733 31.0968 64.5245 30.7266 64.5525 30.3374C64.5812 29.8986 64.5125 29.4589 64.3515 29.0497C64.2128 28.6346 63.987 28.2539 63.6891 27.9333C63.4311 27.6625 63.0958 27.4779 62.7289 27.4048C62.3248 27.3384 61.9101 27.3848 61.5306 27.5388L60.3733 27.9519L61.9958 32.4772Z" fill="#0F5156"/>
<path d="M67.7418 31.0557L66.4058 25.4697L69.6434 24.6957L69.7513 25.1534L67.0235 25.8047L67.5259 27.9073L70.0863 27.297L70.1942 27.7547L67.6376 28.3688L68.1437 30.4751L70.9236 29.809L71.0353 30.263L67.7418 31.0557Z" fill="#0F5156"/>
<path d="M76.1522 23.7318L76.6732 23.6648L77.1235 27.4421C77.1752 27.8071 77.125 28.1793 76.9784 28.5176C76.8312 28.845 76.5969 29.1256 76.3011 29.3289C75.9749 29.5494 75.5988 29.685 75.207 29.7233C74.8164 29.7788 74.4181 29.7339 74.0496 29.5931C73.7117 29.4633 73.4165 29.2421 73.197 28.9543C72.9775 28.6665 72.8423 28.3233 72.8066 27.9631L72.3563 24.1858L72.8736 24.1225L73.3239 27.8626C73.3511 28.1451 73.4539 28.4151 73.6216 28.6441C73.7839 28.8654 74.0059 29.0358 74.2617 29.1353C74.5448 29.2441 74.8509 29.2787 75.1511 29.2358C75.4526 29.2063 75.7419 29.1013 75.9922 28.9307C76.2148 28.7717 76.3887 28.5539 76.4946 28.3017C76.6005 28.0348 76.6339 27.7447 76.5913 27.4607L76.1522 23.7318Z" fill="#0F5156"/>
<path d="M86.0142 25.1161C86.0102 24.9664 85.9742 24.8192 85.9088 24.6844C85.8433 24.5496 85.7498 24.4304 85.6346 24.3346C85.3713 24.123 85.0457 24.004 84.7079 23.996C84.4665 23.9773 84.2239 24.0116 83.9971 24.0965C83.8028 24.1667 83.6307 24.2874 83.4985 24.4463C83.3745 24.5998 83.3028 24.7888 83.2938 24.9859C83.2857 25.1255 83.3126 25.2649 83.3719 25.3915C83.4319 25.5091 83.5155 25.613 83.6176 25.6967C83.7279 25.7863 83.8477 25.8637 83.9748 25.9274C84.1063 25.9918 84.2418 26.0477 84.3804 26.0949L84.9759 26.3033C85.1568 26.3629 85.3334 26.435 85.5043 26.5191C85.6796 26.606 85.8424 26.7161 85.9881 26.8466C86.1345 26.9707 86.2514 27.1258 86.3305 27.3006C86.4246 27.4962 86.4645 27.7134 86.4459 27.9296C86.4336 28.2237 86.3338 28.5075 86.1593 28.7446C85.9772 28.9895 85.7295 29.1779 85.4448 29.2879C84.765 29.5282 84.018 29.4921 83.3645 29.1874C83.0995 29.0572 82.8745 28.8579 82.7132 28.6106C82.5624 28.3669 82.4825 28.0859 82.4825 27.7993L83.0184 27.8291C83.0225 28.04 83.0899 28.2449 83.2119 28.4171C83.3399 28.5835 83.5075 28.7153 83.6994 28.8004C83.919 28.8978 84.1553 28.9522 84.3953 28.9604C84.6563 28.9824 84.919 28.9481 85.1657 28.8599C85.3791 28.7871 85.5692 28.6586 85.7165 28.4878C85.8544 28.3193 85.9329 28.11 85.9397 27.8924C85.9551 27.7183 85.9119 27.5441 85.8169 27.3974C85.7134 27.2526 85.5786 27.1331 85.4225 27.0476C85.2247 26.9421 85.0195 26.8513 84.8084 26.7759L84.1348 26.534C83.7529 26.4115 83.4049 26.2012 83.1189 25.92C83.0034 25.7959 82.9152 25.649 82.8601 25.4888C82.8049 25.3285 82.7841 25.1585 82.7988 24.9896C82.8091 24.6989 82.9136 24.4194 83.0965 24.1932C83.2797 23.9626 83.5213 23.7852 83.7962 23.6797C84.1037 23.5644 84.4326 23.5174 84.76 23.542C85.0867 23.5501 85.4068 23.6356 85.6941 23.7913C85.9501 23.9228 86.1661 24.1208 86.3193 24.3644C86.4679 24.6014 86.5418 24.8776 86.5315 25.1571L86.0142 25.1161Z" fill="#0F5156"/>
<path d="M88.3587 29.6935L89.2965 24.0294L92.5788 24.5727L92.5044 25.0342L89.7208 24.5951L89.3672 26.7275L91.9611 27.1554L91.8867 27.6169L89.3151 27.1666L88.9616 29.3064L91.7862 29.7716L91.708 30.2368L88.3587 29.6935Z" fill="#0F5156"/>
<path d="M93.7138 30.702L95.2322 25.1645L98.4363 26.039L98.3135 26.4967L95.6155 25.7562L95.0312 27.829L97.4762 28.5026L97.3534 28.9529L94.8972 28.283L94.2013 30.8248L93.7138 30.702Z" fill="#0F5156"/>
<path d="M98.2205 32.0008L97.6883 31.7887L101.681 27.1629L102.217 27.3713L102.128 33.4819L101.614 33.2884L101.73 27.9183L101.704 27.8923L98.2205 32.0008ZM99.3816 30.0954L102.046 31.1076L101.879 31.5505L99.2179 30.5345L99.3816 30.0954Z" fill="#0F5156"/>
<path d="M103.706 34.2337L106.341 29.1279L107.989 29.9801C108.313 30.133 108.593 30.3645 108.804 30.6537C108.976 30.8959 109.071 31.1833 109.08 31.4798C109.08 31.789 109.003 32.0934 108.856 32.3655C108.72 32.6431 108.515 32.8813 108.261 33.0577C108.018 33.2222 107.732 33.3091 107.439 33.3071C107.086 33.3049 106.739 33.2141 106.43 33.0428L105.027 32.3171L105.247 31.8892L106.638 32.6111C106.862 32.736 107.112 32.8074 107.368 32.8195C107.574 32.8269 107.778 32.771 107.952 32.6595C108.132 32.5228 108.279 32.3475 108.382 32.1466C108.485 31.9457 108.541 31.7242 108.548 31.4984C108.543 31.2858 108.474 31.0795 108.35 30.9067C108.191 30.7001 107.986 30.5333 107.751 30.4192L106.583 29.8163L104.167 34.5016L103.706 34.2337ZM107.148 33.0912L107.212 36.0423L106.672 35.7632L106.627 32.8307L107.148 33.0912Z" fill="#0F5156"/>
<path d="M110.122 37.8882L108.73 36.9504L111.942 32.1906L113.415 33.188C113.831 33.4504 114.169 33.8192 114.394 34.2561C114.583 34.6638 114.646 35.1184 114.576 35.5623C114.473 36.0813 114.267 36.5743 113.969 37.0122C113.672 37.45 113.29 37.8239 112.846 38.1115C112.445 38.345 111.983 38.4514 111.521 38.4166C111.017 38.3635 110.535 38.1815 110.122 37.8882V37.8882ZM109.411 36.8425L110.349 37.4751C110.698 37.7291 111.11 37.8834 111.54 37.9217C111.921 37.9487 112.301 37.8549 112.626 37.6537C113 37.4144 113.317 37.097 113.557 36.7234C113.808 36.3648 113.981 35.958 114.067 35.5288C114.136 35.1615 114.089 34.7815 113.933 34.4421C113.748 34.0764 113.466 33.7687 113.118 33.5527L112.102 32.8642L109.411 36.8425Z" fill="#0F5156"/>
<path d="M117.996 36.5857L114.364 41.0515L113.955 40.7165L117.58 36.2657L117.996 36.5857Z" fill="#0F5156"/>
<path d="M119.541 38.4799L119.872 38.1487L122.871 41.0291L122.54 41.3603L121.227 40.0987L117.583 43.8983L117.211 43.5262L120.858 39.7303L119.541 38.4799Z" fill="#0F5156"/>
<path d="M119.764 46.1088L119.422 45.7069L125.145 43.5633L125.51 43.9876L122.503 49.3093L122.161 48.9074L124.836 44.2518L124.807 44.222L119.764 46.1088ZM121.696 44.9812L123.545 47.1434L123.188 47.4486L121.338 45.2864L121.696 44.9812Z" fill="#0F5156"/>
<path d="M130.91 55.0739L130.631 54.6087C130.778 54.4776 130.902 54.3213 130.995 54.1473C131.09 53.9746 131.154 53.7871 131.185 53.5928C131.215 53.395 131.21 53.1934 131.17 52.9973C131.13 52.7859 131.053 52.5832 130.943 52.3982C130.767 52.086 130.501 51.8335 130.18 51.6725C129.848 51.5056 129.475 51.4372 129.105 51.4752C128.645 51.5257 128.203 51.6782 127.81 51.9218C127.403 52.1435 127.053 52.4554 126.786 52.8336C126.572 53.1377 126.448 53.4964 126.429 53.8681C126.417 54.2195 126.506 54.567 126.686 54.8692C126.791 55.0565 126.93 55.223 127.095 55.3605C127.247 55.4921 127.421 55.5954 127.609 55.6656C127.791 55.735 127.984 55.7715 128.178 55.7735C128.375 55.7787 128.57 55.7471 128.755 55.6805L129.034 56.1457C128.789 56.2373 128.53 56.2876 128.268 56.2945C128.008 56.2965 127.75 56.255 127.505 56.1717C127.255 56.084 127.024 55.953 126.82 55.7847C126.6 55.5995 126.414 55.378 126.269 55.1297C126.032 54.7422 125.916 54.2923 125.938 53.8384C125.961 53.3806 126.112 52.9385 126.373 52.5619C126.685 52.1286 127.087 51.769 127.553 51.5087C128.009 51.225 128.525 51.0505 129.06 50.9989C129.515 50.9515 129.975 51.034 130.385 51.2371C130.788 51.4498 131.118 51.7793 131.33 52.1823C131.479 52.4273 131.582 52.6971 131.635 52.9787C131.684 53.2395 131.684 53.5069 131.635 53.7677C131.539 54.2836 131.266 54.7503 130.865 55.0888L130.91 55.0739Z" fill="#0F5156"/>
<path d="M128.346 58.8438L133.601 56.5662L134.94 59.6178L134.512 59.8076L133.37 57.2286L131.409 58.0957L132.462 60.5035L132.034 60.6933L130.973 58.2855L128.993 59.1564L130.132 61.7837L129.704 61.9735L128.346 58.8438Z" fill="#0F5156"/>
<path d="M130.441 63.8789L135.904 62.1372L136.459 63.9049C136.58 64.2368 136.615 64.5942 136.559 64.9432C136.512 65.2361 136.374 65.5068 136.165 65.7173C135.944 65.9337 135.676 66.0953 135.382 66.1891C135.088 66.2828 134.776 66.306 134.471 66.2569C134.182 66.2011 133.917 66.0582 133.712 65.8475C133.469 65.5948 133.292 65.2852 133.199 64.9469L132.726 63.4397L133.18 63.2983L133.653 64.7906C133.723 65.038 133.849 65.266 134.021 65.4568C134.164 65.61 134.351 65.7141 134.557 65.7545C134.781 65.7862 135.01 65.7669 135.226 65.698C135.442 65.629 135.639 65.5122 135.804 65.3563C135.954 65.2066 136.052 65.012 136.083 64.8018C136.12 64.5449 136.093 64.2829 136.005 64.0389L135.61 62.781L130.582 64.3701L130.441 63.8789ZM133.675 65.5126L131.628 67.6413L131.453 67.0719L133.504 64.9544L133.675 65.5126Z" fill="#0F5156"/>
<path d="M137.147 68.0097L137.608 67.9204L138.416 72.0028L137.955 72.0921L137.601 70.3095L132.432 71.3329L132.328 70.8194L137.497 69.796L137.147 68.0097Z" fill="#0F5156"/>
<path d="M138.777 74.9539L133.072 75.5978L133.012 75.0768L138.717 74.4329L138.777 74.9539Z" fill="#0F5156"/>
<path d="M133.292 77.9088L139.041 77.7041L139.153 81.0237L138.684 81.0386L138.591 78.2437L136.429 78.3144L136.514 80.8488L136.042 80.8674L135.956 78.3331L133.314 78.4373L133.292 77.9088Z" fill="#0F5156"/>
<path d="M139.045 84.1088L133.307 83.8483L133.333 83.3235L139.064 83.584L139.045 84.1088Z" fill="#0F5156"/>
<path d="M136.492 91.1274L136.559 90.6064C136.755 90.5937 136.948 90.5471 137.128 90.4687C137.494 90.3071 137.792 90.0245 137.973 89.6686C138.071 89.4787 138.135 89.2736 138.163 89.062C138.212 88.7149 138.161 88.3609 138.014 88.0423C137.856 87.7046 137.604 87.4193 137.289 87.2199C136.897 86.974 136.454 86.8212 135.993 86.7733C135.536 86.6999 135.069 86.7279 134.624 86.8552C134.276 86.966 133.964 87.1677 133.72 87.4395C133.495 87.7083 133.352 88.0366 133.31 88.3847C133.28 88.5974 133.285 88.8138 133.325 89.0248C133.365 89.2142 133.434 89.3963 133.53 89.5644C133.737 89.9024 134.055 90.1577 134.43 90.2864L134.356 90.8074C134.107 90.7276 133.873 90.6068 133.664 90.4501C133.452 90.302 133.269 90.1182 133.12 89.9068C132.975 89.6846 132.871 89.4373 132.815 89.1774C132.756 88.8959 132.746 88.6064 132.786 88.3215C132.842 87.8707 133.026 87.4456 133.318 87.0971C133.622 86.7532 134.014 86.4995 134.453 86.364C134.969 86.2083 135.514 86.1727 136.046 86.2598C136.579 86.3168 137.092 86.4964 137.545 86.7845C137.934 87.0288 138.245 87.3786 138.442 87.793C138.631 88.2021 138.693 88.6583 138.621 89.103C138.586 89.3889 138.501 89.6662 138.368 89.9217C138.245 90.1549 138.081 90.3642 137.884 90.5394C137.689 90.7106 137.466 90.8478 137.225 90.9451C136.992 91.0441 136.745 91.1057 136.492 91.1274Z" fill="#0F5156"/>
<path d="M132.16 92.5416L132.302 92.0058L137.333 95.4742L137.195 96.0138L131.096 96.6129L131.23 96.0845L136.581 95.6081L136.604 95.5858L132.16 92.5416ZM134.2 93.4795L133.481 96.2371L133.027 96.118L133.738 93.3604L134.2 93.4795Z" fill="#0F5156"/>
<path d="M129.946 99.8021L130.553 98.2353L135.904 100.327L135.257 101.987C135.088 102.448 134.8 102.856 134.423 103.17C134.07 103.451 133.641 103.621 133.191 103.658C132.663 103.682 132.135 103.589 131.647 103.386C131.145 103.207 130.691 102.914 130.322 102.53C130.008 102.19 129.805 101.763 129.738 101.306C129.671 100.795 129.743 100.275 129.946 99.8021V99.8021ZM130.802 98.894L130.378 99.9584C130.208 100.356 130.145 100.791 130.195 101.22C130.255 101.594 130.429 101.94 130.694 102.21C131.007 102.524 131.386 102.766 131.803 102.917C132.206 103.077 132.638 103.151 133.072 103.137C133.443 103.122 133.8 102.994 134.095 102.768C134.413 102.509 134.653 102.166 134.788 101.778L135.238 100.636L130.802 98.894Z" fill="#0F5156"/>
<path d="M128.368 109.649C127.893 109.403 127.48 109.053 127.159 108.626C126.883 108.258 126.717 107.819 126.682 107.36C126.659 106.908 126.761 106.457 126.978 106.059C127.194 105.661 127.517 105.331 127.91 105.105C128.316 104.89 128.774 104.793 129.231 104.826C129.769 104.866 130.29 105.026 130.757 105.295C131.232 105.541 131.646 105.891 131.967 106.318C132.242 106.686 132.408 107.123 132.447 107.58C132.469 108.033 132.366 108.484 132.149 108.883C131.931 109.281 131.608 109.612 131.215 109.839C130.809 110.051 130.352 110.148 129.894 110.118C129.357 110.075 128.836 109.915 128.368 109.649V109.649ZM128.617 109.199C129.008 109.43 129.446 109.57 129.898 109.608C130.271 109.641 130.645 109.567 130.977 109.392C131.294 109.224 131.553 108.965 131.721 108.648C131.895 108.336 131.974 107.981 131.948 107.625C131.915 107.253 131.777 106.898 131.55 106.601C130.97 105.893 130.137 105.439 129.228 105.336C128.856 105.303 128.483 105.377 128.152 105.548C127.834 105.714 127.574 105.974 127.408 106.292C127.231 106.604 127.151 106.962 127.177 107.319C127.212 107.691 127.35 108.046 127.575 108.343C127.855 108.697 128.208 108.986 128.61 109.191L128.617 109.199Z" fill="#0F5156"/>
<path d="M124.048 116.091L123.675 115.801L125.149 113.918L125.517 114.212L124.048 116.091Z" fill="#0F5156"/>
<path d="M117.903 123.62C118.064 123.719 118.238 123.796 118.421 123.847C118.607 123.899 118.8 123.921 118.994 123.914C119.201 123.905 119.405 123.856 119.593 123.768C119.795 123.681 119.98 123.559 120.14 123.407C120.405 123.17 120.594 122.859 120.683 122.514C120.766 122.151 120.746 121.772 120.624 121.42C120.474 120.991 120.233 120.6 119.917 120.274C119.62 119.932 119.252 119.66 118.837 119.478C118.493 119.328 118.114 119.279 117.743 119.336C117.384 119.399 117.052 119.566 116.787 119.816C116.541 120.034 116.358 120.314 116.258 120.628C116.166 120.928 116.161 121.248 116.244 121.55C116.348 121.903 116.54 122.223 116.802 122.481L116.638 122.555L117.97 121.32L118.301 121.651L116.698 123.128L116.366 122.797C116.058 122.479 115.837 122.087 115.726 121.658C115.629 121.276 115.642 120.873 115.763 120.497C115.865 120.177 116.032 119.882 116.254 119.631C116.476 119.379 116.748 119.178 117.053 119.038C117.359 118.898 117.69 118.824 118.025 118.821C118.36 118.817 118.693 118.883 119.001 119.016C119.495 119.232 119.936 119.553 120.292 119.958C120.575 120.26 120.808 120.604 120.985 120.977C121.14 121.295 121.232 121.64 121.256 121.993C121.27 122.324 121.211 122.653 121.081 122.957C120.947 123.274 120.745 123.557 120.49 123.787C120.273 123.987 120.024 124.148 119.753 124.263C119.259 124.463 118.712 124.484 118.205 124.323C117.961 124.245 117.733 124.125 117.531 123.969L117.903 123.62Z" fill="#0F5156"/>
<path d="M113.196 122.373L116.571 127.014L113.873 128.967L113.598 128.588L115.864 126.939L114.599 125.19L112.466 126.734L112.191 126.355L114.32 124.807L113.021 123.069L110.702 124.747L110.427 124.368L113.196 122.373Z" fill="#0F5156"/>
<path d="M107.647 132.663L104.856 127.639L105.302 127.393L110.613 129.927L110.643 129.898L108.295 125.704L108.767 125.432L111.558 130.456L111.115 130.705L105.794 128.167L105.76 128.201L108.112 132.398L107.647 132.663Z" fill="#0F5156"/>
<path d="M100.785 135.617L98.6634 130.296L99.136 130.106L104.067 133.31L104.097 133.28L102.31 128.815L102.798 128.617L104.919 133.939L104.447 134.129L99.5007 130.925L99.4746 130.951L101.261 135.424L100.785 135.617Z" fill="#0F5156"/>
<path d="M96.5012 130.962L97.9898 136.507L94.7782 137.374L94.6554 136.916L97.3646 136.187L96.8027 134.099L94.2646 134.784L94.1381 134.33L96.6799 133.649L96.1179 131.554L93.3492 132.298L93.2301 131.844L96.5012 130.962Z" fill="#0F5156"/>
<path d="M91.2168 132.272L91.7564 132.186L90.573 138.178L90.0184 138.263L87.0785 132.912L87.6181 132.826L90.171 137.553L90.212 137.549L91.2168 132.272ZM91.1647 134.505L88.3475 134.94L88.2768 134.475L91.0865 134.04L91.1647 134.505Z" fill="#0F5156"/>
<path d="M82.2926 133.18L82.8434 133.187L80.6515 138.892L80.0895 138.881L78.106 133.102L78.653 133.113L80.3649 138.204L80.3835 138.223L82.2926 133.18ZM81.8572 135.372L79.0066 135.32L79.0177 134.847L81.8684 134.899L81.8572 135.372Z" fill="#0F5156"/>
<path d="M72.736 136.82C72.7282 136.97 72.7528 137.12 72.808 137.26C72.8632 137.4 72.9478 137.526 73.056 137.631C73.3041 137.86 73.6205 138.001 73.9566 138.033C74.1923 138.071 74.4333 138.058 74.6637 137.996C74.8622 137.94 75.0421 137.832 75.1847 137.683C75.3122 137.539 75.3927 137.36 75.4154 137.169C75.4356 137.031 75.4202 136.89 75.3708 136.76C75.3183 136.638 75.241 136.527 75.1438 136.436C75.0388 136.341 74.9254 136.255 74.8051 136.179C74.6749 136.109 74.5483 136.042 74.4181 135.986L73.8375 135.733C73.6565 135.655 73.4812 135.564 73.3128 135.461C73.1447 135.362 72.9908 135.24 72.855 135.1C72.7183 134.965 72.6118 134.803 72.5424 134.624C72.4733 134.422 72.4541 134.206 72.4866 133.995C72.5231 133.705 72.6419 133.431 72.829 133.206C73.0318 132.978 73.293 132.809 73.5844 132.718C73.9362 132.611 74.308 132.585 74.6711 132.644C75.019 132.681 75.355 132.792 75.6573 132.968C75.9114 133.113 76.1221 133.324 76.2676 133.578C76.4026 133.833 76.4632 134.12 76.4425 134.408L75.9178 134.345C75.9308 134.136 75.8788 133.928 75.769 133.749C75.6541 133.573 75.4967 133.428 75.3112 133.329C75.0994 133.216 74.8684 133.144 74.6302 133.117C74.3699 133.074 74.1037 133.087 73.8487 133.154C73.6316 133.214 73.4332 133.328 73.2719 133.485C73.1217 133.644 73.0277 133.848 73.0039 134.066C72.9773 134.238 73.0073 134.414 73.0895 134.568C73.185 134.718 73.312 134.845 73.4616 134.94C73.65 135.061 73.8479 135.167 74.0534 135.257L74.7083 135.547C75.0805 135.695 75.4121 135.93 75.6759 136.232C75.7829 136.364 75.8607 136.517 75.9043 136.681C75.9479 136.845 75.9563 137.017 75.929 137.184C75.8985 137.473 75.7759 137.745 75.5792 137.958C75.3778 138.175 75.122 138.333 74.8386 138.416C74.5245 138.513 74.1922 138.538 73.8673 138.487C73.5426 138.452 73.2299 138.345 72.9518 138.174C72.7084 138.021 72.5095 137.807 72.375 137.553C72.2454 137.304 72.1899 137.024 72.215 136.745L72.736 136.82Z" fill="#0F5156"/>
<path d="M66.6923 135.539C66.6684 135.688 66.6766 135.84 66.7164 135.985C66.7562 136.13 66.8267 136.265 66.923 136.38C67.1438 136.636 67.4438 136.81 67.7752 136.875C68.0086 136.936 68.2521 136.946 68.4897 136.905C68.6928 136.872 68.8831 136.785 69.0405 136.652C69.1898 136.521 69.294 136.347 69.3382 136.153C69.3738 136.019 69.3738 135.878 69.3382 135.744C69.3004 135.617 69.2357 135.499 69.1484 135.398C69.0593 135.287 68.9582 135.186 68.847 135.097C68.7326 135.007 68.6119 134.927 68.486 134.855L67.939 134.546C67.7704 134.45 67.6076 134.344 67.4515 134.229C67.2976 134.109 67.1589 133.97 67.0384 133.816C66.9251 133.667 66.8429 133.496 66.7965 133.314C66.7464 133.107 66.7503 132.89 66.8076 132.685C66.8729 132.399 67.0219 132.138 67.2356 131.937C67.459 131.728 67.7382 131.588 68.0395 131.535C68.4004 131.468 68.7719 131.483 69.1261 131.58C69.4666 131.655 69.7875 131.8 70.0677 132.008C70.3025 132.187 70.486 132.424 70.5998 132.696C70.7042 132.961 70.735 133.249 70.6891 133.53L70.1644 133.4C70.2024 133.193 70.1737 132.979 70.0825 132.789C69.9887 132.6 69.8477 132.439 69.6732 132.32C69.25 132.044 68.7414 131.929 68.2404 131.997C68.019 132.03 67.8107 132.123 67.6375 132.265C67.4692 132.402 67.3524 132.592 67.3063 132.804C67.259 132.974 67.2695 133.155 67.3361 133.318C67.4136 133.479 67.5253 133.621 67.6636 133.735C67.8369 133.878 68.0225 134.006 68.2181 134.118L68.8358 134.475C69.1897 134.664 69.4934 134.934 69.7216 135.264C69.813 135.406 69.8735 135.565 69.8991 135.732C69.9248 135.899 69.915 136.069 69.8704 136.232C69.8064 136.516 69.6556 136.774 69.4387 136.968C69.2144 137.16 68.9436 137.29 68.6535 137.344C68.3296 137.402 67.9971 137.389 67.6785 137.307C67.3602 137.235 67.0615 137.094 66.8039 136.894C66.5778 136.715 66.4021 136.48 66.2941 136.213C66.1929 135.954 66.1684 135.671 66.2234 135.398L66.6923 135.539Z" fill="#0F5156"/>
<path d="M65.215 130.608L63.2649 136.012L60.1315 134.881L60.2915 134.438L62.9337 135.39L63.6668 133.355L61.1921 132.465L61.3521 132.023L63.8268 132.912L64.56 130.876L61.8694 129.905L62.0294 129.462L65.215 130.608Z" fill="#0F5156"/>
<path d="M55.4423 131.152C55.3871 131.292 55.3625 131.442 55.3702 131.592C55.3779 131.742 55.4177 131.889 55.487 132.023C55.6495 132.32 55.906 132.556 56.2164 132.692C56.4308 132.804 56.667 132.868 56.9086 132.879C57.1186 132.887 57.3269 132.838 57.5114 132.737C57.6875 132.65 57.83 132.508 57.9171 132.331C57.9819 132.208 58.0127 132.069 58.0064 131.93C57.9945 131.797 57.9566 131.668 57.8947 131.55C57.8297 131.424 57.7497 131.307 57.6566 131.2C57.5592 131.092 57.4561 130.989 57.3477 130.891L56.8788 130.467C56.7332 130.34 56.5964 130.203 56.4694 130.058C56.3424 129.908 56.2349 129.743 56.1494 129.566C56.0652 129.394 56.0171 129.207 56.008 129.016C56.0041 128.805 56.0513 128.597 56.1456 128.409C56.2738 128.147 56.4738 127.926 56.7225 127.773C56.9872 127.621 57.2882 127.544 57.5933 127.549C57.9572 127.568 58.3122 127.668 58.6316 127.843C58.9511 127.986 59.2346 128.198 59.4615 128.465C59.6543 128.687 59.783 128.957 59.8336 129.246C59.8834 129.53 59.8498 129.822 59.7369 130.087L59.2382 129.842C59.3192 129.646 59.3374 129.43 59.2903 129.224C59.2378 129.019 59.1341 128.831 58.9888 128.677C58.8231 128.506 58.6277 128.366 58.412 128.264C58.1888 128.132 57.9403 128.048 57.6826 128.018C57.4579 128.004 57.2334 128.049 57.0314 128.149C56.8382 128.245 56.6815 128.402 56.5848 128.595C56.5016 128.751 56.474 128.931 56.5066 129.105C56.5498 129.287 56.6352 129.457 56.756 129.6C56.8928 129.777 57.0447 129.941 57.21 130.091L57.7384 130.575C58.0439 130.836 58.2836 131.164 58.4381 131.535C58.4967 131.694 58.5214 131.863 58.5105 132.031C58.4996 132.2 58.4534 132.364 58.3748 132.514C58.2514 132.778 58.0483 132.996 57.7943 133.139C57.533 133.276 57.2406 133.343 56.9458 133.333C56.6192 133.32 56.2989 133.239 56.0049 133.096C55.7109 132.954 55.4497 132.751 55.2376 132.503C55.0564 132.279 54.9359 132.012 54.8878 131.729C54.8421 131.452 54.8796 131.169 54.9957 130.914L55.4423 131.152Z" fill="#0F5156"/>
<path d="M50.1168 127.992C50.0464 128.125 50.0053 128.272 49.9963 128.422C49.9873 128.572 50.0106 128.723 50.0647 128.863C50.1905 129.177 50.4187 129.439 50.7122 129.607C50.9064 129.74 51.1254 129.833 51.3561 129.879C51.5594 129.911 51.7676 129.888 51.9589 129.812C52.1431 129.738 52.2993 129.608 52.4055 129.44C52.4806 129.324 52.5242 129.191 52.5321 129.053C52.5387 128.92 52.5172 128.787 52.4688 128.662C52.4145 128.53 52.3458 128.404 52.2641 128.286C52.1831 128.166 52.0936 128.052 51.9962 127.944L51.5794 127.475C51.4503 127.329 51.331 127.175 51.2221 127.014C51.1103 126.852 51.0202 126.677 50.9542 126.493C50.8817 126.304 50.856 126.1 50.8794 125.899C50.9027 125.698 50.9743 125.506 51.0881 125.339C51.243 125.088 51.4682 124.889 51.7357 124.766C52.0096 124.638 52.3144 124.592 52.6139 124.632C52.978 124.683 53.3255 124.816 53.6299 125.023C53.934 125.206 54.1954 125.452 54.3965 125.745C54.5661 125.975 54.6726 126.246 54.7054 126.53C54.7187 126.817 54.6503 127.102 54.5082 127.352L54.0541 127.062C54.1641 126.877 54.2099 126.661 54.1844 126.448C54.1571 126.239 54.0749 126.041 53.9462 125.875C53.8046 125.682 53.6262 125.519 53.4215 125.395C53.2031 125.25 52.9574 125.151 52.6995 125.104C52.4726 125.07 52.2408 125.095 52.0259 125.175C51.8235 125.254 51.6523 125.396 51.5384 125.581C51.4406 125.728 51.3936 125.903 51.4045 126.079C51.4247 126.26 51.4858 126.433 51.5831 126.586C51.7013 126.776 51.8358 126.955 51.985 127.122L52.4539 127.657C52.73 127.95 52.9316 128.305 53.0419 128.692C53.0819 128.856 53.0874 129.027 53.0579 129.194C53.0285 129.36 52.9647 129.519 52.8707 129.66C52.7172 129.906 52.4909 130.098 52.2232 130.21C51.9529 130.323 51.6574 130.362 51.3672 130.322C51.0428 130.277 50.7325 130.16 50.4592 129.98C50.182 129.806 49.9479 129.572 49.7744 129.295C49.6161 129.054 49.5249 128.775 49.5102 128.487C49.4974 128.208 49.5673 127.931 49.7112 127.691L50.1168 127.992Z" fill="#0F5156"/>
<path d="M44.8398 122.127C45.17 121.705 45.5911 121.363 46.0716 121.126C46.4832 120.923 46.9434 120.839 47.4002 120.884C47.8537 120.937 48.2812 121.124 48.6283 121.42C48.9831 121.702 49.2482 122.081 49.3912 122.511C49.5261 122.951 49.5365 123.42 49.4209 123.865C49.281 124.384 49.0281 124.866 48.6804 125.276C48.3499 125.697 47.9289 126.039 47.4486 126.277C47.0359 126.476 46.576 126.557 46.12 126.511C45.6712 126.45 45.248 126.267 44.8973 125.98C44.5465 125.694 44.2819 125.316 44.1327 124.889C43.9964 124.45 43.9848 123.982 44.0992 123.538C44.2353 123.017 44.4886 122.535 44.8398 122.127V122.127ZM45.2492 122.462C44.9541 122.807 44.7371 123.212 44.6128 123.649C44.5138 124.009 44.5176 124.389 44.624 124.747C44.7352 125.094 44.9478 125.4 45.2343 125.625C45.5074 125.856 45.843 125.999 46.1981 126.038C46.5696 126.055 46.9381 125.967 47.2625 125.785C47.6658 125.576 48.0197 125.283 48.3008 124.926C48.5958 124.58 48.8129 124.175 48.9371 123.739C49.0351 123.38 49.03 123.001 48.9223 122.644C48.8151 122.295 48.6034 121.987 48.3157 121.763C48.0403 121.531 47.702 121.387 47.3444 121.349C46.9729 121.314 46.5988 121.383 46.2651 121.55C45.8602 121.771 45.5083 122.077 45.2343 122.447L45.2492 122.462Z" fill="#0F5156"/>
<path d="M41.5836 118.476L42.4805 115.652L42.9084 116.08L42.0041 118.897L41.5836 118.476ZM45.2046 118.502L41.07 122.488L39.7861 121.152C39.5312 120.908 39.3418 120.603 39.2354 120.266C39.1504 119.982 39.153 119.679 39.2428 119.396C39.3402 119.103 39.5105 118.841 39.7378 118.633C39.9546 118.413 40.2234 118.252 40.5193 118.164C40.8039 118.09 41.1038 118.1 41.3826 118.194C41.7112 118.314 42.0051 118.513 42.2386 118.774L43.3364 119.909L42.9978 120.248L41.8999 119.113C41.7286 118.922 41.516 118.773 41.2784 118.677C41.0809 118.608 40.8671 118.599 40.6644 118.651C40.451 118.728 40.2572 118.85 40.097 119.011C39.9367 119.171 39.814 119.365 39.7378 119.578C39.6713 119.78 39.67 119.997 39.734 120.199C39.8172 120.445 39.9575 120.667 40.1434 120.847L41.0552 121.796L44.8473 118.145L45.2046 118.502Z" fill="#0F5156"/>
<path d="M36.5447 117.479L40.9882 113.847L41.3231 114.256L36.8797 117.889L36.5447 117.479Z" fill="#0F5156"/>
<path d="M39.5368 112.023L39.8382 112.466L33.9211 113.992L33.601 113.531L37.1625 108.562L37.4639 109.005L34.3044 113.348L34.3342 113.378L39.5368 112.023ZM37.4862 112.95L35.8786 110.598L36.2693 110.334L37.877 112.686L37.4862 112.95Z" fill="#0F5156"/>
<path d="M29.6413 102.396C29.4838 102.512 29.3446 102.652 29.2283 102.809C29.1214 102.963 29.0409 103.135 28.9901 103.315C28.9382 103.507 28.9181 103.705 28.9305 103.903C28.9485 104.124 29.0052 104.339 29.098 104.54C29.2419 104.869 29.4801 105.149 29.7828 105.343C30.0973 105.537 30.459 105.642 30.8285 105.645C31.2822 105.64 31.7292 105.536 32.1385 105.34C32.557 105.164 32.9327 104.9 33.24 104.566C33.4942 104.285 33.6633 103.938 33.7275 103.565C33.7813 103.204 33.7283 102.835 33.5749 102.504C33.4476 102.202 33.2405 101.941 32.9758 101.749C32.7224 101.562 32.4191 101.456 32.105 101.443C31.7442 101.427 31.3854 101.504 31.063 101.667L31.0406 101.488L31.7961 103.166L31.3644 103.36L30.475 101.369L30.888 101.224C31.2862 101.032 31.7269 100.944 32.1682 100.971C32.56 101.002 32.9351 101.143 33.2512 101.376C33.5226 101.573 33.7496 101.825 33.9177 102.114C34.0858 102.404 34.1911 102.726 34.2269 103.06C34.2627 103.393 34.2281 103.73 34.1254 104.049C34.0227 104.368 33.8542 104.662 33.6308 104.912C33.272 105.316 32.8268 105.634 32.3283 105.842C31.9565 106.008 31.5609 106.115 31.156 106.158C30.8017 106.2 30.4427 106.172 30.0991 106.077C29.7808 105.985 29.4871 105.824 29.2394 105.604C28.9831 105.375 28.7799 105.093 28.644 104.778C28.5189 104.511 28.4456 104.223 28.4282 103.929C28.4042 103.656 28.4281 103.38 28.4989 103.114C28.5739 102.867 28.691 102.634 28.845 102.426C28.9898 102.214 29.1728 102.031 29.3846 101.886L29.6413 102.396Z" fill="#0F5156"/>
<path d="M32.3135 98.3098L26.8541 100.048L25.8567 96.8696L26.3108 96.7282L27.1481 99.4039L29.2135 98.7601L28.4208 96.2481L28.8674 96.1067L29.6563 98.6149L31.7255 97.9674L30.8547 95.2359L31.3012 95.0944L32.3135 98.3098Z" fill="#0F5156"/>
<path d="M24.316 89.7915L29.954 88.7308L30.0507 89.2295L25.9571 93.4571L25.9646 93.5018L30.6908 92.6086L30.7876 93.1222L25.1496 94.1828L25.0602 93.6841L29.1576 89.4454L29.1315 89.4193L24.4202 90.2901L24.316 89.7915Z" fill="#0F5156"/>
<path d="M29.7047 86.4645L23.9774 86.8701L23.7429 83.5469L24.2155 83.5134L24.4016 86.3045L26.5601 86.1556L26.374 83.5283L26.8429 83.4985L27.029 86.1184L29.1911 85.9658L28.9865 83.1115L29.4591 83.078L29.7047 86.4645Z" fill="#0F5156"/>
<path d="M29.433 81.0199L29.4107 81.5707L23.7541 79.2634L23.7764 78.7052L29.5856 76.8482L29.5633 77.3915L24.4537 78.9806L24.45 79.0215L29.433 81.0199ZM27.2485 80.5399L27.3713 77.6855L27.8365 77.7041L27.7174 80.5622L27.2485 80.5399Z" fill="#0F5156"/>
<path d="M29.7977 75.1177L24.1188 74.2915L24.1932 73.7705L29.4033 74.5148L29.7717 71.8242L30.2369 71.8949L29.7977 75.1177Z" fill="#0F5156"/>
<path d="M24.9524 66.6924L23.9178 65.6578L24.0778 65.0735L25.0938 66.2309L24.9524 66.6924ZM28.9939 64.9358C29.518 65.0576 30.0085 65.294 30.4304 65.628C30.785 65.9207 31.0516 66.3058 31.2007 66.7407C31.3326 67.1745 31.3419 67.6363 31.2276 68.0751C31.1133 68.5138 30.8799 68.9124 30.5532 69.2267C30.2117 69.5351 29.7897 69.7403 29.3363 69.8184C28.8088 69.9067 28.2681 69.8749 27.7546 69.7254C27.2303 69.6043 26.7396 69.3678 26.3181 69.0332C25.9646 68.7418 25.6992 68.3578 25.5515 67.9242C25.4094 67.4929 25.399 67.0291 25.5218 66.5919C25.6286 66.1486 25.8627 65.7463 26.1953 65.4345C26.5387 65.1289 26.9599 64.9242 27.4123 64.8428C27.9399 64.7563 28.4801 64.7881 28.9939 64.9358V64.9358ZM28.8636 65.4308C28.4272 65.306 27.9689 65.2768 27.5202 65.3452C27.1462 65.4079 26.7977 65.5757 26.5154 65.829C26.2535 66.0734 26.0663 66.387 25.9754 66.7334C25.8845 67.0799 25.8936 67.445 26.0018 67.7865C26.1271 68.1384 26.3489 68.4479 26.6419 68.6796C26.9993 68.9607 27.4131 69.1613 27.8551 69.2676C28.2916 69.3928 28.7505 69.4195 29.1986 69.3458C29.5739 69.2862 29.9241 69.1195 30.2071 68.8657C30.4723 68.6233 30.659 68.3071 30.743 67.9577C30.8408 67.612 30.8317 67.2449 30.7169 66.9045C30.5935 66.5515 30.373 66.2406 30.0806 66.0076C29.7211 65.7301 29.306 65.5333 28.8636 65.4308Z" fill="#0F5156"/>
<path d="M30.248 58.5981C30.0538 58.5739 29.857 58.5776 29.6638 58.6093C29.4696 58.6411 29.2822 58.7052 29.1093 58.7991C28.9327 58.8921 28.774 59.0155 28.6404 59.1638C28.4532 59.3814 28.3161 59.6376 28.2389 59.9142C28.1618 60.1907 28.1463 60.4808 28.1938 60.764C28.2745 61.1286 28.4549 61.4635 28.7148 61.7316C29.0368 62.0538 29.4237 62.3038 29.8498 62.4647C30.2664 62.6452 30.7172 62.7328 31.171 62.7215C31.5452 62.7068 31.9076 62.5869 32.2167 62.3754C32.4954 62.1714 32.7152 61.8974 32.8537 61.581C32.9923 61.2647 33.0447 60.9173 33.0056 60.5742C32.96 60.2625 32.8256 59.9706 32.6186 59.7331C32.3777 59.4612 32.0717 59.2551 31.7292 59.134L31.8557 59.0075L31.1635 60.7119L30.7281 60.537L31.5468 58.5125L31.9822 58.6874C32.3944 58.8448 32.7604 59.1033 33.0466 59.4391C33.299 59.7443 33.4603 60.1145 33.5118 60.5072C33.559 60.9203 33.4974 61.3385 33.3331 61.7204C33.1696 62.1555 32.8808 62.5323 32.5033 62.8034C32.1279 63.0659 31.6846 63.2146 31.2268 63.2313C30.6909 63.2495 30.1574 63.1504 29.6638 62.941C29.2786 62.7893 28.9195 62.5783 28.5994 62.3158C28.323 62.0911 28.0951 61.8126 27.9296 61.4971C27.7731 61.2055 27.684 60.8825 27.6691 60.5519C27.6571 60.2089 27.7193 59.8675 27.8514 59.5508C27.9579 59.276 28.113 59.0227 28.3092 58.8028C28.4917 58.6049 28.707 58.44 28.9455 58.3153C29.1772 58.1994 29.426 58.1215 29.6824 58.0845C29.9388 58.0499 30.1992 58.0587 30.4527 58.1106L30.248 58.5981Z" fill="#0F5156"/>
<path d="M30.2071 54.5976L35.3167 57.2212L35.0785 57.6901L29.9727 55.0628L30.2071 54.5976Z" fill="#0F5156"/>
<path d="M35.4544 49.2833L35.1642 49.7373C34.982 49.6676 34.7896 49.6287 34.5948 49.6219C34.3984 49.6168 34.2028 49.6484 34.0179 49.715C33.8283 49.7773 33.6508 49.8717 33.4932 49.9941C33.3244 50.1288 33.1797 50.2911 33.0652 50.4742C32.8745 50.769 32.7737 51.1129 32.775 51.4641C32.777 51.8389 32.8854 52.2054 33.0876 52.521C33.34 52.9061 33.6774 53.2282 34.0738 53.4625C34.4585 53.723 34.8976 53.8923 35.3577 53.9574C35.7265 54.0059 36.1015 53.9505 36.4406 53.7974C36.7561 53.6468 37.0221 53.4092 37.2072 53.1127C37.3227 52.9307 37.407 52.7307 37.4566 52.521C37.5003 52.3257 37.5128 52.1247 37.4938 51.9255C37.4676 51.728 37.4072 51.5366 37.3152 51.3599C37.2287 51.1831 37.1115 51.0231 36.9691 50.8872L37.2593 50.4332C37.4562 50.6062 37.619 50.8145 37.7394 51.0473C37.8619 51.2748 37.945 51.5214 37.985 51.7767C38.0604 52.3279 37.932 52.8876 37.624 53.3509C37.3889 53.7398 37.0429 54.0495 36.6304 54.2403C36.2126 54.4309 35.7494 54.4992 35.2944 54.4375C34.765 54.3502 34.2586 54.1573 33.8053 53.8702C33.352 53.5832 32.9611 53.2078 32.6559 52.7666C32.4077 52.3783 32.2724 51.9286 32.2651 51.4678C32.2641 51.0138 32.3975 50.5697 32.6484 50.1913C32.7981 49.9465 32.991 49.7308 33.2178 49.555C33.4277 49.3931 33.6646 49.2696 33.9175 49.1903C34.1662 49.1178 34.4254 49.0876 34.6841 49.1009C34.9495 49.1165 35.2102 49.1782 35.4544 49.2833Z" fill="#0F5156"/>
<path d="M39.9759 49.8155L39.641 50.2248L36.5075 44.9924L36.8611 44.557L42.6145 46.5889L42.2795 46.9983L37.222 45.1934L37.196 45.2194L39.9759 49.8155ZM38.5208 48.1147L40.322 45.9116L40.6867 46.2094L38.8855 48.4125L38.5208 48.1147Z" fill="#0F5156"/>
<path d="M79.1013 118.333V99.4445C74.9515 98.8486 71.0066 97.2605 67.6014 94.8151C64.1961 92.3697 61.4309 89.139 59.5404 85.3972C57.6498 81.6553 56.6896 77.5127 56.7412 73.3206C56.7929 69.1286 57.8549 65.0109 59.8371 61.3167C61.8193 57.6226 64.6633 54.461 68.1278 52.1003C71.5922 49.7395 75.575 48.2492 79.7382 47.7557C83.9014 47.2622 88.1222 47.7801 92.0426 49.2655C95.963 50.7509 99.4673 53.16 102.258 56.2884C102.893 57.0282 103.212 57.9872 103.148 58.9597C103.083 59.9322 102.64 60.8407 101.914 61.4906C101.188 62.1405 100.236 62.48 99.2622 62.4362C98.2886 62.3925 97.3709 61.969 96.7058 61.2566C94.741 59.0596 92.2826 57.3604 89.533 56.2988C86.7834 55.2372 83.8211 54.8435 80.8896 55.1501C77.9582 55.4566 75.1414 56.4547 72.6709 58.0623C70.2004 59.6698 68.1469 61.8408 66.6791 64.3968C65.2113 66.9528 64.3713 69.8207 64.2281 72.7646C64.0849 75.7086 64.6426 78.6445 65.8553 81.3309C67.0681 84.0172 68.9012 86.3773 71.204 88.2171C73.5068 90.0568 76.2134 91.3236 79.1013 91.9132V84.8135C79.1054 80.8637 80.6767 77.077 83.4701 74.2845C86.2635 71.4921 90.0509 69.9222 94.0007 69.9194H105.174C106.161 69.9194 107.107 70.3114 107.805 71.0092C108.503 71.707 108.895 72.6534 108.895 73.6403C108.902 79.2164 107.119 84.6475 103.808 89.1338C100.496 93.6201 95.8315 96.9245 90.5008 98.5603C89.2107 98.9598 87.8908 99.2555 86.5536 99.4445V118.333H79.1013ZM94.0007 77.3664C92.026 77.3678 90.1326 78.1529 88.7363 79.5492C87.34 80.9455 86.555 82.8389 86.5536 84.8135V91.8869C87.147 91.7688 87.7337 91.6195 88.3114 91.4396C91.2147 90.5502 93.8555 88.9625 96.0026 86.8154C98.1496 84.6684 99.7374 82.0275 100.627 79.1243C100.806 78.5453 100.953 77.9612 101.074 77.3664H94.0007Z" fill="#6FCE1A"/>
</g>
<defs>
<clipPath id="clip0_416:7434">
<rect width="115.258" height="115.258" fill="white" transform="translate(81.5) rotate(45)"/>
</clipPath>
</defs>
</svg>
