<svg width="163" height="164" viewBox="0 0 163 164" fill="none" xmlns="http://www.w3.org/2000/svg">
<g clip-path="url(#clip0_416_7435)">
<path d="M45.3795 39.742L45.7144 40.077L43.9393 41.6809L43.6081 41.3497L45.3795 39.742Z" fill="white"/>
<path d="M50.1764 32.8685L50.6193 32.567L52.9154 36.0168C53.1007 36.2801 53.2207 36.5837 53.2652 36.9025C53.2956 37.1697 53.2436 37.4398 53.1164 37.6766C52.9735 37.9171 52.7727 38.118 52.5321 38.2609C52.3068 38.4161 52.0502 38.5203 51.7804 38.566C51.5377 38.6043 51.2891 38.5747 51.0621 38.4805C50.8344 38.3816 50.6413 38.217 50.5076 38.0078L50.9505 37.7064C51.0371 37.8414 51.1631 37.9466 51.3115 38.0078C51.4627 38.0679 51.628 38.0834 51.7878 38.0525C51.968 38.0254 52.1397 37.958 52.2902 37.8552C52.4505 37.7589 52.5847 37.6248 52.681 37.4645C52.76 37.299 52.7873 37.1135 52.7591 36.9323C52.7198 36.7013 52.6281 36.4824 52.4912 36.2922L50.1764 32.8685Z" fill="white"/>
<path d="M56.5103 29.3108L56.9718 29.0726L58.7134 32.4517C58.8842 32.7768 58.9639 33.142 58.9442 33.5086C58.9222 33.8653 58.8024 34.2091 58.5981 34.5022C58.3622 34.8198 58.056 35.0784 57.7035 35.2579C57.351 35.4374 56.9617 35.5329 56.5662 35.5368C56.2034 35.5319 55.8492 35.4263 55.543 35.2318C55.2367 35.0373 54.9906 34.7615 54.832 34.4353L53.0903 31.0562L53.5592 30.818L55.2823 34.1636C55.4052 34.4161 55.591 34.6326 55.8219 34.7925C56.0517 34.9412 56.3186 35.0224 56.5922 35.027C56.8963 35.0318 57.1964 34.9574 57.463 34.8111C57.7347 34.6789 57.9689 34.4805 58.1441 34.2343C58.2994 34.0079 58.3872 33.742 58.3971 33.4677C58.4055 33.1841 58.3401 32.9033 58.2073 32.6527L56.5103 29.3108Z" fill="white"/>
<path d="M63.2462 32.7048L61.6646 33.2817L59.6997 27.8855L61.3743 27.2752C61.8315 27.0942 62.3288 27.0389 62.8145 27.1152C63.2604 27.1963 63.6707 27.4119 63.9905 27.733C64.3625 28.108 64.6427 28.564 64.8092 29.0652C65.0045 29.5618 65.0834 30.0965 65.04 30.6283C65.0013 31.092 64.8207 31.5325 64.5227 31.8898C64.1751 32.2677 63.7352 32.5486 63.2462 32.7048V32.7048ZM61.9958 32.6602L63.0527 32.2731C63.4638 32.1394 63.8323 31.8993 64.1208 31.5772C64.3733 31.2797 64.5245 30.9095 64.5525 30.5203C64.5812 30.0816 64.5125 29.6419 64.3515 29.2327C64.2128 28.8176 63.987 28.4369 63.6891 28.1163C63.4311 27.8454 63.0958 27.6609 62.7289 27.5878C62.3248 27.5214 61.9101 27.5678 61.5306 27.7218L60.3733 28.1349L61.9958 32.6602Z" fill="white"/>
<path d="M67.7418 31.2386L66.4058 25.6527L69.6434 24.8787L69.7513 25.3364L67.0235 25.9876L67.5259 28.0903L70.0863 27.48L70.1942 27.9377L67.6376 28.5517L68.1437 30.6581L70.9236 29.9919L71.0353 30.446L67.7418 31.2386Z" fill="white"/>
<path d="M76.1522 23.9148L76.6732 23.8478L77.1235 27.6251C77.1752 27.9901 77.125 28.3623 76.9784 28.7006C76.8312 29.028 76.5969 29.3086 76.3011 29.5118C75.9749 29.7324 75.5988 29.868 75.207 29.9063C74.8164 29.9617 74.4181 29.9169 74.0496 29.7761C73.7117 29.6463 73.4165 29.4251 73.197 29.1373C72.9775 28.8495 72.8423 28.5063 72.8066 28.1461L72.3563 24.3688L72.8736 24.3055L73.3239 28.0456C73.3511 28.3281 73.4539 28.5981 73.6216 28.8271C73.7839 29.0484 74.0059 29.2188 74.2617 29.3183C74.5448 29.4271 74.8509 29.4617 75.1511 29.4188C75.4526 29.3893 75.7419 29.2843 75.9922 29.1136C76.2148 28.9547 76.3887 28.7369 76.4946 28.4847C76.6005 28.2178 76.6339 27.9276 76.5913 27.6437L76.1522 23.9148Z" fill="white"/>
<path d="M86.0142 25.2991C86.0102 25.1493 85.9742 25.0022 85.9088 24.8674C85.8433 24.7326 85.7498 24.6134 85.6346 24.5176C85.3713 24.306 85.0457 24.1869 84.7079 24.179C84.4665 24.1603 84.2239 24.1946 83.9971 24.2794C83.8028 24.3497 83.6307 24.4704 83.4985 24.6293C83.3745 24.7827 83.3028 24.9718 83.2938 25.1689C83.2857 25.3085 83.3126 25.4479 83.3719 25.5745C83.4319 25.6921 83.5155 25.796 83.6176 25.8797C83.7279 25.9693 83.8477 26.0467 83.9748 26.1104C84.1063 26.1748 84.2418 26.2307 84.3804 26.2779L84.9759 26.4863C85.1568 26.5458 85.3334 26.618 85.5043 26.7021C85.6796 26.789 85.8424 26.8991 85.9881 27.0296C86.1345 27.1537 86.2514 27.3088 86.3305 27.4836C86.4246 27.6791 86.4645 27.8964 86.4459 28.1126C86.4336 28.4067 86.3338 28.6905 86.1593 28.9276C85.9772 29.1725 85.7295 29.3609 85.4448 29.4709C84.765 29.7112 84.018 29.6751 83.3645 29.3704C83.0995 29.2402 82.8745 29.0409 82.7132 28.7936C82.5624 28.5499 82.4825 28.2689 82.4825 27.9823L83.0184 28.0121C83.0225 28.223 83.0899 28.4279 83.2119 28.6001C83.3399 28.7665 83.5075 28.8983 83.6994 28.9834C83.919 29.0808 84.1553 29.1352 84.3953 29.1434C84.6563 29.1654 84.919 29.1311 85.1657 29.0429C85.3791 28.97 85.5692 28.8416 85.7165 28.6708C85.8544 28.5023 85.9329 28.293 85.9397 28.0753C85.9551 27.9013 85.9119 27.7271 85.8169 27.5804C85.7134 27.4356 85.5786 27.316 85.4225 27.2306C85.2247 27.1251 85.0195 27.0343 84.8084 26.9589L84.1348 26.717C83.7529 26.5945 83.4049 26.3842 83.1189 26.103C83.0034 25.9789 82.9152 25.832 82.8601 25.6718C82.8049 25.5115 82.7841 25.3414 82.7988 25.1726C82.8091 24.8819 82.9136 24.6024 83.0965 24.3762C83.2797 24.1456 83.5213 23.9682 83.7962 23.8626C84.1037 23.7473 84.4326 23.7004 84.76 23.7249C85.0867 23.7331 85.4068 23.8186 85.6941 23.9743C85.9501 24.1058 86.1661 24.3038 86.3193 24.5474C86.4679 24.7844 86.5418 25.0605 86.5315 25.3401L86.0142 25.2991Z" fill="white"/>
<path d="M88.3587 29.8765L89.2965 24.2124L92.5788 24.7557L92.5044 25.2172L89.7208 24.7781L89.3672 26.9105L91.9611 27.3384L91.8867 27.7999L89.3151 27.3496L88.9616 29.4894L91.7862 29.9546L91.708 30.4198L88.3587 29.8765Z" fill="white"/>
<path d="M93.7138 30.885L95.2322 25.3474L98.4363 26.222L98.3135 26.6797L95.6155 25.9392L95.0312 28.012L97.4762 28.6856L97.3534 29.1359L94.8972 28.466L94.2013 31.0078L93.7138 30.885Z" fill="white"/>
<path d="M98.2205 32.1838L97.6883 31.9717L101.681 27.3459L102.217 27.5543L102.128 33.6649L101.614 33.4714L101.73 28.1013L101.704 28.0753L98.2205 32.1838ZM99.3816 30.2784L102.046 31.2906L101.879 31.7335L99.2179 30.7175L99.3816 30.2784Z" fill="white"/>
<path d="M103.706 34.4167L106.341 29.3108L107.989 30.1631C108.313 30.316 108.593 30.5475 108.804 30.8366C108.976 31.0789 109.071 31.3663 109.08 31.6628C109.08 31.972 109.003 32.2764 108.856 32.5485C108.72 32.8261 108.515 33.0643 108.261 33.2407C108.018 33.4052 107.732 33.4921 107.439 33.49C107.086 33.4879 106.739 33.3971 106.43 33.2258L105.027 32.5001L105.247 32.0722L106.638 32.7941C106.862 32.919 107.112 32.9904 107.368 33.0025C107.574 33.0099 107.778 32.954 107.952 32.8425C108.132 32.7058 108.279 32.5305 108.382 32.3296C108.485 32.1286 108.541 31.9071 108.548 31.6814C108.543 31.4688 108.474 31.2625 108.35 31.0897C108.191 30.8831 107.986 30.7162 107.751 30.6022L106.583 29.9993L104.167 34.6846L103.706 34.4167ZM107.148 33.2742L107.212 36.2253L106.672 35.9462L106.627 33.0137L107.148 33.2742Z" fill="white"/>
<path d="M110.122 38.0712L108.73 37.1334L111.942 32.3736L113.415 33.371C113.831 33.6334 114.169 34.0022 114.394 34.439C114.583 34.8468 114.646 35.3014 114.576 35.7453C114.473 36.2643 114.267 36.7573 113.969 37.1952C113.672 37.633 113.29 38.0068 112.846 38.2945C112.445 38.528 111.983 38.6344 111.521 38.5996C111.017 38.5465 110.535 38.3645 110.122 38.0712V38.0712ZM109.411 37.0255L110.349 37.6581C110.698 37.912 111.11 38.0664 111.54 38.1047C111.921 38.1316 112.301 38.0379 112.626 37.8367C113 37.5974 113.317 37.28 113.557 36.9064C113.808 36.5478 113.981 36.141 114.067 35.7118C114.136 35.3444 114.089 34.9645 113.933 34.6251C113.748 34.2594 113.466 33.9517 113.118 33.7357L112.102 33.0472L109.411 37.0255Z" fill="white"/>
<path d="M117.996 36.7687L114.364 41.2344L113.955 40.8995L117.58 36.4486L117.996 36.7687Z" fill="white"/>
<path d="M119.541 38.6628L119.872 38.3316L122.871 41.2121L122.54 41.5433L121.227 40.2817L117.583 44.0813L117.211 43.7092L120.858 39.9133L119.541 38.6628Z" fill="white"/>
<path d="M119.764 46.2918L119.422 45.8899L125.145 43.7463L125.51 44.1706L122.503 49.4923L122.161 49.0903L124.836 44.4348L124.807 44.405L119.764 46.2918ZM121.696 45.1642L123.545 47.3264L123.188 47.6315L121.338 45.4694L121.696 45.1642Z" fill="white"/>
<path d="M130.91 55.2569L130.631 54.7917C130.778 54.6605 130.902 54.5043 130.995 54.3302C131.09 54.1576 131.154 53.9701 131.185 53.7758C131.215 53.578 131.21 53.3764 131.17 53.1803C131.13 52.9689 131.053 52.7662 130.943 52.5812C130.767 52.269 130.501 52.0164 130.18 51.8555C129.848 51.6886 129.475 51.6202 129.105 51.6582C128.645 51.7086 128.203 51.8612 127.81 52.1048C127.403 52.3265 127.053 52.6384 126.786 53.0166C126.572 53.3207 126.448 53.6794 126.429 54.0511C126.417 54.4025 126.506 54.75 126.686 55.0522C126.791 55.2395 126.93 55.4059 127.095 55.5434C127.247 55.675 127.421 55.7784 127.609 55.8486C127.791 55.9179 127.984 55.9545 128.178 55.9565C128.375 55.9617 128.57 55.9301 128.755 55.8635L129.034 56.3287C128.789 56.4203 128.53 56.4706 128.268 56.4775C128.008 56.4795 127.75 56.438 127.505 56.3547C127.255 56.267 127.024 56.1359 126.82 55.9677C126.6 55.7825 126.414 55.5609 126.269 55.3127C126.032 54.9252 125.916 54.4753 125.938 54.0214C125.961 53.5636 126.112 53.1215 126.373 52.7449C126.685 52.3116 127.087 51.952 127.553 51.6917C128.009 51.408 128.525 51.2335 129.06 51.1819C129.515 51.1344 129.975 51.217 130.385 51.4201C130.788 51.6328 131.118 51.9622 131.33 52.3653C131.479 52.6103 131.582 52.8801 131.635 53.1617C131.684 53.4225 131.684 53.6899 131.635 53.9507C131.539 54.4666 131.266 54.9333 130.865 55.2718L130.91 55.2569Z" fill="white"/>
<path d="M128.346 59.0267L133.601 56.7492L134.94 59.8008L134.512 59.9906L133.37 57.4116L131.409 58.2787L132.462 60.6865L132.034 60.8763L130.973 58.4685L128.993 59.3393L130.132 61.9667L129.704 62.1565L128.346 59.0267Z" fill="white"/>
<path d="M130.441 64.0619L135.904 62.3202L136.459 64.0879C136.58 64.4197 136.615 64.7772 136.559 65.1262C136.512 65.4191 136.374 65.6897 136.165 65.9003C135.944 66.1167 135.676 66.2783 135.382 66.372C135.088 66.4658 134.776 66.489 134.471 66.4399C134.182 66.3841 133.917 66.2412 133.712 66.0305C133.469 65.7778 133.292 65.4682 133.199 65.1299L132.726 63.6227L133.18 63.4813L133.653 64.9736C133.723 65.221 133.849 65.449 134.021 65.6398C134.164 65.7929 134.351 65.8971 134.557 65.9375C134.781 65.9692 135.01 65.9499 135.226 65.881C135.442 65.812 135.639 65.6952 135.804 65.5393C135.954 65.3896 136.052 65.195 136.083 64.9848C136.12 64.7279 136.093 64.4659 136.005 64.2219L135.61 62.964L130.582 64.5531L130.441 64.0619ZM133.675 65.6956L131.628 67.8243L131.453 67.2549L133.504 65.1374L133.675 65.6956Z" fill="white"/>
<path d="M137.147 68.1927L137.608 68.1033L138.416 72.1858L137.955 72.2751L137.601 70.4925L132.432 71.5159L132.328 71.0024L137.497 69.979L137.147 68.1927Z" fill="white"/>
<path d="M138.777 75.1369L133.072 75.7807L133.012 75.2597L138.717 74.6159L138.777 75.1369Z" fill="white"/>
<path d="M133.292 78.0918L139.041 77.8871L139.153 81.2067L138.684 81.2215L138.591 78.4267L136.429 78.4974L136.514 81.0318L136.042 81.0504L135.956 78.516L133.314 78.6202L133.292 78.0918Z" fill="white"/>
<path d="M139.045 84.2917L133.307 84.0312L133.333 83.5065L139.064 83.767L139.045 84.2917Z" fill="white"/>
<path d="M136.492 91.3104L136.559 90.7894C136.755 90.7767 136.948 90.7301 137.128 90.6517C137.494 90.4901 137.792 90.2075 137.973 89.8516C138.071 89.6617 138.135 89.4566 138.163 89.245C138.212 88.8979 138.161 88.5439 138.014 88.2253C137.856 87.8876 137.604 87.6023 137.289 87.4029C136.897 87.157 136.454 87.0042 135.993 86.9563C135.536 86.8829 135.069 86.9109 134.624 87.0382C134.276 87.149 133.964 87.3507 133.72 87.6225C133.495 87.8913 133.352 88.2196 133.31 88.5677C133.28 88.7804 133.285 88.9967 133.325 89.2078C133.365 89.3972 133.434 89.5793 133.53 89.7474C133.737 90.0854 134.055 90.3407 134.43 90.4694L134.356 90.9904C134.107 90.9106 133.873 90.7898 133.664 90.6331C133.452 90.485 133.269 90.3012 133.12 90.0898C132.975 89.8676 132.871 89.6203 132.815 89.3604C132.756 89.0789 132.746 88.7893 132.786 88.5044C132.842 88.0537 133.026 87.6286 133.318 87.2801C133.622 86.9361 134.014 86.6825 134.453 86.5469C134.969 86.3913 135.514 86.3556 136.046 86.4427C136.579 86.4998 137.092 86.6794 137.545 86.9675C137.934 87.2118 138.245 87.5616 138.442 87.976C138.631 88.3851 138.693 88.8412 138.621 89.2859C138.586 89.5718 138.501 89.8492 138.368 90.1047C138.245 90.3379 138.081 90.5472 137.884 90.7224C137.689 90.8936 137.466 91.0307 137.225 91.1281C136.992 91.2271 136.745 91.2886 136.492 91.3104Z" fill="white"/>
<path d="M132.16 92.7246L132.302 92.1887L137.333 95.6571L137.195 96.1968L131.096 96.7959L131.23 96.2675L136.581 95.7911L136.604 95.7688L132.16 92.7246ZM134.2 93.6624L133.481 96.4201L133.027 96.301L133.738 93.5433L134.2 93.6624Z" fill="white"/>
<path d="M129.946 99.9851L130.553 98.4183L135.904 100.51L135.257 102.17C135.088 102.631 134.8 103.039 134.423 103.353C134.07 103.634 133.641 103.804 133.191 103.841C132.663 103.865 132.135 103.772 131.647 103.569C131.145 103.39 130.691 103.097 130.322 102.713C130.008 102.373 129.805 101.946 129.738 101.489C129.671 100.978 129.743 100.458 129.946 99.9851V99.9851ZM130.802 99.077L130.378 100.141C130.208 100.539 130.145 100.974 130.195 101.403C130.255 101.777 130.429 102.123 130.694 102.393C131.007 102.707 131.386 102.949 131.803 103.1C132.206 103.26 132.638 103.334 133.072 103.319C133.443 103.305 133.8 103.176 134.095 102.951C134.413 102.692 134.653 102.349 134.788 101.961L135.238 100.819L130.802 99.077Z" fill="white"/>
<path d="M128.368 109.832C127.893 109.586 127.48 109.236 127.159 108.809C126.883 108.441 126.717 108.002 126.682 107.543C126.659 107.091 126.761 106.64 126.978 106.242C127.194 105.844 127.517 105.514 127.91 105.288C128.316 105.073 128.774 104.976 129.231 105.009C129.769 105.049 130.29 105.209 130.757 105.478C131.232 105.724 131.646 106.074 131.967 106.501C132.242 106.869 132.408 107.306 132.447 107.763C132.469 108.216 132.366 108.667 132.149 109.066C131.931 109.464 131.608 109.795 131.215 110.022C130.809 110.234 130.352 110.331 129.894 110.301C129.357 110.258 128.836 110.098 128.368 109.832V109.832ZM128.617 109.382C129.008 109.613 129.446 109.753 129.898 109.791C130.271 109.824 130.645 109.749 130.977 109.575C131.294 109.407 131.553 109.148 131.721 108.831C131.895 108.519 131.974 108.164 131.948 107.808C131.915 107.436 131.777 107.081 131.55 106.784C130.97 106.076 130.137 105.622 129.228 105.519C128.856 105.486 128.483 105.56 128.152 105.731C127.834 105.897 127.574 106.157 127.408 106.475C127.231 106.787 127.151 107.145 127.177 107.502C127.212 107.874 127.35 108.229 127.575 108.526C127.855 108.88 128.208 109.169 128.61 109.374L128.617 109.382Z" fill="white"/>
<path d="M124.048 116.274L123.675 115.984L125.149 114.101L125.517 114.395L124.048 116.274Z" fill="white"/>
<path d="M117.903 123.803C118.064 123.902 118.238 123.978 118.421 124.03C118.607 124.082 118.8 124.104 118.994 124.097C119.201 124.088 119.405 124.039 119.593 123.951C119.795 123.864 119.98 123.742 120.14 123.59C120.405 123.353 120.594 123.042 120.683 122.697C120.766 122.334 120.746 121.955 120.624 121.603C120.474 121.174 120.233 120.783 119.917 120.457C119.62 120.115 119.252 119.843 118.837 119.661C118.493 119.511 118.114 119.462 117.743 119.519C117.384 119.582 117.052 119.749 116.787 119.999C116.541 120.217 116.358 120.497 116.258 120.811C116.166 121.11 116.161 121.431 116.244 121.733C116.348 122.086 116.54 122.406 116.802 122.664L116.638 122.738L117.97 121.503L118.301 121.834L116.698 123.311L116.366 122.98C116.058 122.662 115.837 122.27 115.726 121.841C115.629 121.458 115.642 121.056 115.763 120.68C115.865 120.36 116.032 120.065 116.254 119.814C116.476 119.562 116.748 119.36 117.053 119.221C117.359 119.081 117.69 119.007 118.025 119.004C118.36 119 118.693 119.066 119.001 119.199C119.495 119.415 119.936 119.736 120.292 120.141C120.575 120.443 120.808 120.787 120.985 121.16C121.14 121.478 121.232 121.823 121.256 122.176C121.27 122.507 121.211 122.836 121.081 123.14C120.947 123.457 120.745 123.74 120.49 123.97C120.273 124.17 120.024 124.331 119.753 124.446C119.259 124.646 118.712 124.667 118.205 124.506C117.961 124.428 117.733 124.308 117.531 124.152L117.903 123.803Z" fill="white"/>
<path d="M113.196 122.556L116.571 127.197L113.873 129.15L113.598 128.771L115.864 127.122L114.599 125.373L112.466 126.917L112.191 126.538L114.32 124.99L113.021 123.252L110.702 124.93L110.427 124.551L113.196 122.556Z" fill="white"/>
<path d="M107.647 132.846L104.856 127.822L105.302 127.576L110.613 130.11L110.643 130.081L108.295 125.887L108.767 125.615L111.558 130.639L111.115 130.888L105.794 128.35L105.76 128.384L108.112 132.581L107.647 132.846Z" fill="white"/>
<path d="M100.785 135.8L98.6634 130.479L99.136 130.289L104.067 133.493L104.097 133.463L102.31 128.998L102.798 128.8L104.919 134.122L104.447 134.312L99.5007 131.108L99.4746 131.134L101.261 135.607L100.785 135.8Z" fill="white"/>
<path d="M96.5012 131.145L97.9898 136.69L94.7782 137.557L94.6554 137.099L97.3646 136.37L96.8027 134.282L94.2646 134.967L94.1381 134.513L96.6799 133.832L96.1179 131.737L93.3492 132.481L93.2301 132.027L96.5012 131.145Z" fill="white"/>
<path d="M91.2168 132.455L91.7564 132.369L90.573 138.361L90.0184 138.446L87.0785 133.095L87.6181 133.009L90.171 137.736L90.212 137.732L91.2168 132.455ZM91.1647 134.688L88.3475 135.123L88.2768 134.658L91.0865 134.223L91.1647 134.688Z" fill="white"/>
<path d="M82.2926 133.363L82.8434 133.37L80.6515 139.075L80.0895 139.064L78.106 133.285L78.653 133.296L80.3649 138.387L80.3835 138.405L82.2926 133.363ZM81.8572 135.555L79.0066 135.503L79.0177 135.03L81.8684 135.082L81.8572 135.555Z" fill="white"/>
<path d="M72.736 137.003C72.7282 137.153 72.7528 137.303 72.808 137.443C72.8632 137.583 72.9478 137.709 73.056 137.814C73.3041 138.043 73.6205 138.184 73.9566 138.216C74.1923 138.254 74.4333 138.241 74.6637 138.178C74.8622 138.123 75.0421 138.015 75.1847 137.866C75.3122 137.722 75.3927 137.543 75.4154 137.352C75.4356 137.214 75.4202 137.073 75.3708 136.943C75.3183 136.821 75.241 136.71 75.1438 136.619C75.0388 136.524 74.9254 136.438 74.8051 136.362C74.6749 136.292 74.5483 136.225 74.4181 136.169L73.8375 135.916C73.6565 135.838 73.4812 135.747 73.3128 135.644C73.1447 135.545 72.9908 135.423 72.855 135.283C72.7183 135.148 72.6118 134.986 72.5424 134.807C72.4733 134.605 72.4541 134.389 72.4866 134.178C72.5231 133.888 72.6419 133.614 72.829 133.389C73.0318 133.161 73.293 132.992 73.5844 132.901C73.9362 132.794 74.308 132.768 74.6711 132.827C75.019 132.864 75.355 132.975 75.6573 133.151C75.9114 133.296 76.1221 133.507 76.2676 133.761C76.4026 134.016 76.4632 134.303 76.4425 134.591L75.9178 134.528C75.9308 134.319 75.8788 134.111 75.769 133.932C75.6541 133.756 75.4967 133.611 75.3112 133.512C75.0994 133.399 74.8684 133.327 74.6302 133.3C74.3699 133.257 74.1037 133.27 73.8487 133.337C73.6316 133.397 73.4332 133.511 73.2719 133.668C73.1217 133.827 73.0277 134.031 73.0039 134.249C72.9773 134.421 73.0073 134.597 73.0895 134.751C73.185 134.901 73.312 135.028 73.4616 135.123C73.65 135.244 73.8479 135.35 74.0534 135.439L74.7083 135.73C75.0805 135.878 75.4121 136.113 75.6759 136.415C75.7829 136.547 75.8607 136.7 75.9043 136.864C75.9479 137.028 75.9563 137.2 75.929 137.367C75.8985 137.656 75.7759 137.928 75.5792 138.141C75.3778 138.358 75.122 138.516 74.8386 138.599C74.5245 138.696 74.1922 138.721 73.8673 138.67C73.5426 138.635 73.2299 138.528 72.9518 138.357C72.7084 138.204 72.5095 137.99 72.375 137.736C72.2454 137.487 72.1899 137.207 72.215 136.928L72.736 137.003Z" fill="white"/>
<path d="M66.6923 135.722C66.6684 135.871 66.6766 136.023 66.7164 136.168C66.7562 136.313 66.8267 136.448 66.923 136.563C67.1438 136.819 67.4438 136.993 67.7752 137.058C68.0086 137.119 68.2521 137.129 68.4897 137.088C68.6928 137.055 68.8831 136.968 69.0405 136.835C69.1898 136.704 69.294 136.53 69.3382 136.336C69.3738 136.202 69.3738 136.061 69.3382 135.927C69.3004 135.8 69.2357 135.682 69.1484 135.581C69.0593 135.47 68.9582 135.369 68.847 135.28C68.7326 135.19 68.6119 135.11 68.486 135.038L67.939 134.729C67.7704 134.633 67.6076 134.527 67.4515 134.412C67.2976 134.292 67.1589 134.153 67.0384 133.999C66.9251 133.85 66.8429 133.679 66.7965 133.497C66.7464 133.29 66.7503 133.073 66.8076 132.868C66.8729 132.582 67.0219 132.321 67.2356 132.12C67.459 131.911 67.7382 131.771 68.0395 131.718C68.4004 131.651 68.7719 131.666 69.1261 131.763C69.4666 131.838 69.7875 131.983 70.0677 132.191C70.3025 132.369 70.486 132.607 70.5998 132.879C70.7042 133.144 70.735 133.432 70.6891 133.713L70.1644 133.583C70.2024 133.376 70.1737 133.162 70.0825 132.972C69.9887 132.783 69.8477 132.622 69.6732 132.503C69.25 132.227 68.7414 132.112 68.2404 132.18C68.019 132.213 67.8107 132.305 67.6375 132.448C67.4692 132.585 67.3524 132.775 67.3063 132.987C67.259 133.157 67.2695 133.338 67.3361 133.501C67.4136 133.662 67.5253 133.804 67.6636 133.918C67.8369 134.061 68.0225 134.189 68.2181 134.301L68.8358 134.658C69.1897 134.847 69.4934 135.117 69.7216 135.447C69.813 135.589 69.8735 135.748 69.8991 135.915C69.9248 136.082 69.915 136.252 69.8704 136.415C69.8064 136.699 69.6556 136.957 69.4387 137.151C69.2144 137.343 68.9436 137.473 68.6535 137.527C68.3296 137.585 67.9971 137.572 67.6785 137.49C67.3602 137.418 67.0615 137.277 66.8039 137.077C66.5778 136.898 66.4021 136.663 66.2941 136.396C66.1929 136.137 66.1684 135.854 66.2234 135.581L66.6923 135.722Z" fill="white"/>
<path d="M65.215 130.791L63.2649 136.195L60.1315 135.064L60.2915 134.621L62.9337 135.573L63.6668 133.538L61.1921 132.648L61.3521 132.206L63.8268 133.095L64.56 131.059L61.8694 130.088L62.0294 129.645L65.215 130.791Z" fill="white"/>
<path d="M55.4423 131.335C55.3871 131.475 55.3625 131.625 55.3702 131.775C55.3779 131.925 55.4177 132.072 55.487 132.206C55.6495 132.503 55.906 132.739 56.2164 132.875C56.4308 132.987 56.667 133.051 56.9086 133.062C57.1186 133.07 57.3269 133.021 57.5114 132.92C57.6875 132.833 57.83 132.691 57.9171 132.514C57.9819 132.391 58.0127 132.252 58.0064 132.113C57.9945 131.98 57.9566 131.851 57.8947 131.733C57.8297 131.607 57.7497 131.49 57.6566 131.383C57.5592 131.275 57.4561 131.172 57.3477 131.074L56.8788 130.65C56.7332 130.523 56.5964 130.386 56.4694 130.241C56.3424 130.091 56.2349 129.926 56.1494 129.749C56.0652 129.577 56.0171 129.39 56.008 129.199C56.0041 128.988 56.0513 128.78 56.1456 128.592C56.2738 128.33 56.4738 128.109 56.7225 127.956C56.9872 127.804 57.2882 127.727 57.5933 127.732C57.9572 127.751 58.3122 127.851 58.6316 128.026C58.9511 128.169 59.2346 128.381 59.4615 128.648C59.6543 128.87 59.783 129.14 59.8336 129.429C59.8834 129.713 59.8498 130.005 59.7369 130.27L59.2382 130.025C59.3192 129.829 59.3374 129.613 59.2903 129.407C59.2378 129.202 59.1341 129.014 58.9888 128.86C58.8231 128.689 58.6277 128.549 58.412 128.447C58.1888 128.315 57.9403 128.231 57.6826 128.201C57.4579 128.187 57.2334 128.232 57.0314 128.332C56.8382 128.428 56.6815 128.585 56.5848 128.778C56.5016 128.934 56.474 129.114 56.5066 129.288C56.5498 129.47 56.6352 129.64 56.756 129.783C56.8928 129.96 57.0447 130.124 57.21 130.274L57.7384 130.758C58.0439 131.019 58.2836 131.347 58.4381 131.718C58.4967 131.877 58.5214 132.046 58.5105 132.214C58.4996 132.383 58.4534 132.547 58.3748 132.697C58.2514 132.961 58.0483 133.179 57.7943 133.322C57.533 133.459 57.2406 133.526 56.9458 133.516C56.6192 133.503 56.2989 133.422 56.0049 133.279C55.7109 133.136 55.4497 132.934 55.2376 132.686C55.0564 132.462 54.9359 132.195 54.8878 131.912C54.8421 131.635 54.8796 131.352 54.9957 131.097L55.4423 131.335Z" fill="white"/>
<path d="M50.1168 128.175C50.0464 128.308 50.0053 128.455 49.9963 128.605C49.9873 128.755 50.0106 128.906 50.0647 129.046C50.1905 129.36 50.4187 129.622 50.7122 129.79C50.9064 129.923 51.1254 130.016 51.3561 130.062C51.5594 130.094 51.7676 130.071 51.9589 129.995C52.1431 129.921 52.2993 129.791 52.4055 129.623C52.4806 129.507 52.5242 129.374 52.5321 129.236C52.5387 129.103 52.5172 128.97 52.4688 128.845C52.4145 128.713 52.3458 128.587 52.2641 128.469C52.1831 128.349 52.0936 128.234 51.9962 128.127L51.5794 127.658C51.4503 127.512 51.331 127.358 51.2221 127.197C51.1103 127.035 51.0202 126.86 50.9542 126.676C50.8817 126.487 50.856 126.283 50.8794 126.082C50.9027 125.881 50.9743 125.689 51.0881 125.522C51.243 125.271 51.4682 125.072 51.7357 124.949C52.0096 124.821 52.3144 124.775 52.6139 124.815C52.978 124.866 53.3255 124.999 53.6299 125.206C53.934 125.389 54.1954 125.635 54.3965 125.928C54.5661 126.158 54.6726 126.429 54.7054 126.713C54.7187 127 54.6503 127.285 54.5082 127.535L54.0541 127.245C54.1641 127.06 54.2099 126.844 54.1844 126.631C54.1571 126.422 54.0749 126.224 53.9462 126.058C53.8046 125.865 53.6262 125.702 53.4215 125.578C53.2031 125.433 52.9574 125.334 52.6995 125.287C52.4726 125.253 52.2408 125.278 52.0259 125.358C51.8235 125.437 51.6523 125.579 51.5384 125.764C51.4406 125.911 51.3936 126.086 51.4045 126.262C51.4247 126.443 51.4858 126.616 51.5831 126.769C51.7013 126.959 51.8358 127.138 51.985 127.305L52.4539 127.84C52.73 128.133 52.9316 128.488 53.0419 128.875C53.0819 129.039 53.0874 129.21 53.0579 129.377C53.0285 129.543 52.9647 129.702 52.8707 129.843C52.7172 130.089 52.4909 130.281 52.2232 130.393C51.9529 130.506 51.6574 130.545 51.3672 130.505C51.0428 130.46 50.7325 130.343 50.4592 130.163C50.182 129.989 49.9479 129.755 49.7744 129.478C49.6161 129.237 49.5249 128.958 49.5102 128.67C49.4974 128.391 49.5673 128.114 49.7112 127.874L50.1168 128.175Z" fill="white"/>
<path d="M44.8398 122.31C45.17 121.888 45.5911 121.546 46.0716 121.309C46.4832 121.106 46.9434 121.022 47.4002 121.067C47.8537 121.12 48.2812 121.307 48.6283 121.603C48.9831 121.885 49.2482 122.264 49.3912 122.693C49.5261 123.134 49.5365 123.603 49.4209 124.048C49.281 124.567 49.0281 125.049 48.6804 125.459C48.3499 125.88 47.9289 126.222 47.4486 126.46C47.0359 126.659 46.576 126.74 46.12 126.694C45.6712 126.633 45.248 126.45 44.8973 126.163C44.5465 125.877 44.2819 125.499 44.1327 125.072C43.9964 124.633 43.9848 124.165 44.0992 123.721C44.2353 123.2 44.4886 122.718 44.8398 122.31V122.31ZM45.2492 122.645C44.9541 122.99 44.7371 123.395 44.6128 123.832C44.5138 124.192 44.5176 124.572 44.624 124.93C44.7352 125.277 44.9478 125.583 45.2343 125.808C45.5074 126.039 45.843 126.182 46.1981 126.221C46.5696 126.238 46.9381 126.15 47.2625 125.968C47.6658 125.759 48.0197 125.466 48.3008 125.109C48.5958 124.763 48.8129 124.358 48.9371 123.922C49.0351 123.563 49.03 123.184 48.9223 122.827C48.8151 122.478 48.6034 122.17 48.3157 121.945C48.0403 121.714 47.702 121.57 47.3444 121.532C46.9729 121.497 46.5988 121.566 46.2651 121.733C45.8602 121.954 45.5083 122.26 45.2343 122.63L45.2492 122.645Z" fill="white"/>
<path d="M41.5836 118.659L42.4805 115.835L42.9084 116.263L42.0041 119.08L41.5836 118.659ZM45.2046 118.685L41.07 122.671L39.7861 121.335C39.5312 121.091 39.3418 120.786 39.2354 120.449C39.1504 120.165 39.153 119.862 39.2428 119.579C39.3402 119.286 39.5105 119.024 39.7378 118.816C39.9546 118.596 40.2234 118.435 40.5193 118.347C40.8039 118.273 41.1038 118.283 41.3826 118.377C41.7112 118.497 42.0051 118.696 42.2386 118.957L43.3364 120.092L42.9978 120.431L41.8999 119.296C41.7286 119.105 41.516 118.956 41.2784 118.86C41.0809 118.791 40.8671 118.782 40.6644 118.834C40.451 118.911 40.2572 119.033 40.097 119.194C39.9367 119.354 39.814 119.548 39.7378 119.761C39.6713 119.963 39.67 120.18 39.734 120.382C39.8172 120.628 39.9575 120.85 40.1434 121.03L41.0552 121.979L44.8473 118.328L45.2046 118.685Z" fill="white"/>
<path d="M36.5447 117.662L40.9882 114.03L41.3231 114.439L36.8797 118.072L36.5447 117.662Z" fill="white"/>
<path d="M39.5368 112.206L39.8382 112.649L33.9211 114.175L33.601 113.714L37.1625 108.745L37.4639 109.188L34.3044 113.531L34.3342 113.561L39.5368 112.206ZM37.4862 113.133L35.8786 110.781L36.2693 110.517L37.877 112.869L37.4862 113.133Z" fill="white"/>
<path d="M29.6413 102.579C29.4838 102.695 29.3446 102.835 29.2283 102.992C29.1214 103.146 29.0409 103.318 28.9901 103.498C28.9382 103.69 28.9181 103.888 28.9305 104.086C28.9485 104.307 29.0052 104.522 29.098 104.723C29.2419 105.052 29.4801 105.332 29.7828 105.526C30.0973 105.72 30.459 105.825 30.8285 105.828C31.2822 105.823 31.7292 105.719 32.1385 105.523C32.557 105.347 32.9327 105.083 33.24 104.749C33.4942 104.468 33.6633 104.121 33.7275 103.748C33.7813 103.387 33.7283 103.018 33.5749 102.687C33.4476 102.385 33.2405 102.124 32.9758 101.932C32.7224 101.745 32.4191 101.639 32.105 101.626C31.7442 101.61 31.3854 101.687 31.063 101.85L31.0406 101.671L31.7961 103.349L31.3644 103.543L30.475 101.552L30.888 101.407C31.2862 101.215 31.7269 101.127 32.1682 101.154C32.56 101.185 32.9351 101.326 33.2512 101.559C33.5226 101.756 33.7496 102.007 33.9177 102.297C34.0858 102.587 34.1911 102.909 34.2269 103.243C34.2627 103.576 34.2281 103.913 34.1254 104.232C34.0227 104.551 33.8542 104.845 33.6308 105.095C33.272 105.499 32.8268 105.817 32.3283 106.025C31.9565 106.191 31.5609 106.298 31.156 106.341C30.8017 106.383 30.4427 106.355 30.0991 106.26C29.7808 106.168 29.4871 106.007 29.2394 105.787C28.9831 105.558 28.7799 105.276 28.644 104.961C28.5189 104.694 28.4456 104.406 28.4282 104.112C28.4042 103.839 28.4281 103.563 28.4989 103.297C28.5739 103.05 28.691 102.817 28.845 102.609C28.9898 102.397 29.1728 102.214 29.3846 102.069L29.6413 102.579Z" fill="white"/>
<path d="M32.3135 98.4928L26.8541 100.231L25.8567 97.0526L26.3108 96.9112L27.1481 99.5869L29.2135 98.9431L28.4208 96.4311L28.8674 96.2897L29.6563 98.7979L31.7255 98.1504L30.8547 95.4188L31.3012 95.2774L32.3135 98.4928Z" fill="white"/>
<path d="M24.316 89.9744L29.954 88.9138L30.0507 89.4125L25.9571 93.6401L25.9646 93.6847L30.6908 92.7916L30.7876 93.3051L25.1496 94.3658L25.0602 93.8671L29.1576 89.6283L29.1315 89.6023L24.4202 90.4731L24.316 89.9744Z" fill="white"/>
<path d="M29.7047 86.6475L23.9774 87.0531L23.7429 83.7299L24.2155 83.6964L24.4016 86.4875L26.5601 86.3386L26.374 83.7113L26.8429 83.6815L27.029 86.3014L29.1911 86.1488L28.9865 83.2945L29.4591 83.261L29.7047 86.6475Z" fill="white"/>
<path d="M29.433 81.2029L29.4107 81.7537L23.7541 79.4464L23.7764 78.8882L29.5856 77.0312L29.5633 77.5745L24.4537 79.1635L24.45 79.2045L29.433 81.2029ZM27.2485 80.7228L27.3713 77.8685L27.8365 77.8871L27.7174 80.7452L27.2485 80.7228Z" fill="white"/>
<path d="M29.7977 75.3007L24.1188 74.4745L24.1932 73.9535L29.4033 74.6978L29.7717 72.0072L30.2369 72.0779L29.7977 75.3007Z" fill="white"/>
<path d="M24.9524 66.8754L23.9178 65.8408L24.0778 65.2565L25.0938 66.4139L24.9524 66.8754ZM28.9939 65.1188C29.518 65.2406 30.0085 65.477 30.4304 65.811C30.785 66.1037 31.0516 66.4888 31.2007 66.9237C31.3326 67.3575 31.3419 67.8193 31.2276 68.258C31.1133 68.6968 30.8799 69.0953 30.5532 69.4097C30.2117 69.7181 29.7897 69.9233 29.3363 70.0014C28.8088 70.0897 28.2681 70.0579 27.7546 69.9084C27.2303 69.7872 26.7396 69.5508 26.3181 69.2162C25.9646 68.9248 25.6992 68.5408 25.5515 68.1072C25.4094 67.6759 25.399 67.2121 25.5218 66.7749C25.6286 66.3316 25.8627 65.9293 26.1953 65.6175C26.5387 65.3119 26.9599 65.1071 27.4123 65.0258C27.9399 64.9393 28.4801 64.9711 28.9939 65.1188V65.1188ZM28.8636 65.6138C28.4272 65.489 27.9689 65.4598 27.5202 65.5282C27.1462 65.5909 26.7977 65.7587 26.5154 66.012C26.2535 66.2564 26.0663 66.5699 25.9754 66.9164C25.8845 67.2629 25.8936 67.628 26.0018 67.9695C26.1271 68.3214 26.3489 68.6309 26.6419 68.8626C26.9993 69.1437 27.4131 69.3442 27.8551 69.4506C28.2916 69.5758 28.7505 69.6024 29.1986 69.5288C29.5739 69.4692 29.9241 69.3025 30.2071 69.0487C30.4723 68.8063 30.659 68.49 30.743 68.1407C30.8408 67.795 30.8317 67.4279 30.7169 67.0875C30.5935 66.7345 30.373 66.4236 30.0806 66.1906C29.7211 65.9131 29.306 65.7163 28.8636 65.6138Z" fill="white"/>
<path d="M30.248 58.7811C30.0538 58.7568 29.857 58.7606 29.6638 58.7923C29.4696 58.824 29.2822 58.8882 29.1093 58.9821C28.9327 59.0751 28.774 59.1985 28.6404 59.3468C28.4532 59.5644 28.3161 59.8206 28.2389 60.0971C28.1618 60.3737 28.1463 60.6638 28.1938 60.947C28.2745 61.3115 28.4549 61.6465 28.7148 61.9146C29.0368 62.2368 29.4237 62.4867 29.8498 62.6477C30.2664 62.8282 30.7172 62.9158 31.171 62.9045C31.5452 62.8898 31.9076 62.7699 32.2167 62.5584C32.4954 62.3544 32.7152 62.0803 32.8537 61.764C32.9923 61.4477 33.0447 61.1003 33.0056 60.7572C32.96 60.4455 32.8256 60.1536 32.6186 59.9161C32.3777 59.6442 32.0717 59.4381 31.7292 59.317L31.8557 59.1905L31.1635 60.8949L30.7281 60.72L31.5468 58.6955L31.9822 58.8704C32.3944 59.0278 32.7604 59.2863 33.0466 59.6221C33.299 59.9273 33.4603 60.2975 33.5118 60.6902C33.559 61.1033 33.4974 61.5215 33.3331 61.9034C33.1696 62.3384 32.8808 62.7153 32.5033 62.9863C32.1279 63.2489 31.6846 63.3975 31.2268 63.4143C30.6909 63.4325 30.1574 63.3334 29.6638 63.124C29.2786 62.9723 28.9195 62.7613 28.5994 62.4988C28.323 62.2741 28.0951 61.9955 27.9296 61.6801C27.7731 61.3885 27.684 61.0655 27.6691 60.7349C27.6571 60.3919 27.7193 60.0505 27.8514 59.7338C27.9579 59.459 28.113 59.2056 28.3092 58.9858C28.4917 58.7879 28.707 58.623 28.9455 58.4983C29.1772 58.3824 29.426 58.3045 29.6824 58.2675C29.9388 58.2329 30.1992 58.2417 30.4527 58.2936L30.248 58.7811Z" fill="white"/>
<path d="M30.2071 54.7806L35.3167 57.4042L35.0785 57.8731L29.9727 55.2457L30.2071 54.7806Z" fill="white"/>
<path d="M35.4544 49.4663L35.1642 49.9203C34.982 49.8506 34.7896 49.8116 34.5948 49.8049C34.3984 49.7998 34.2028 49.8313 34.0179 49.898C33.8283 49.9603 33.6508 50.0547 33.4932 50.1771C33.3244 50.3118 33.1797 50.4741 33.0652 50.6572C32.8745 50.952 32.7737 51.2959 32.775 51.647C32.777 52.0218 32.8854 52.3884 33.0876 52.7039C33.34 53.0891 33.6774 53.4112 34.0738 53.6455C34.4585 53.906 34.8976 54.0753 35.3577 54.1404C35.7265 54.1888 36.1015 54.1334 36.4406 53.9804C36.7561 53.8298 37.0221 53.5922 37.2072 53.2957C37.3227 53.1137 37.407 52.9137 37.4566 52.704C37.5003 52.5087 37.5128 52.3077 37.4938 52.1085C37.4676 51.911 37.4072 51.7196 37.3152 51.5429C37.2287 51.3661 37.1115 51.206 36.9691 51.0702L37.2593 50.6162C37.4562 50.7892 37.619 50.9975 37.7394 51.2302C37.8619 51.4577 37.945 51.7044 37.985 51.9597C38.0604 52.5108 37.932 53.0706 37.624 53.5338C37.3889 53.9228 37.0429 54.2325 36.6304 54.4233C36.2126 54.6138 35.7494 54.6822 35.2944 54.6205C34.765 54.5332 34.2586 54.3403 33.8053 54.0532C33.352 53.7661 32.9611 53.3908 32.6559 52.9496C32.4077 52.5613 32.2724 52.1116 32.2651 51.6508C32.2641 51.1968 32.3975 50.7526 32.6484 50.3743C32.7981 50.1295 32.991 49.9138 33.2178 49.738C33.4277 49.5761 33.6646 49.4526 33.9175 49.3732C34.1662 49.3008 34.4254 49.2706 34.6841 49.2839C34.9495 49.2995 35.2102 49.3612 35.4544 49.4663Z" fill="white"/>
<path d="M39.9759 49.9984L39.641 50.4078L36.5075 45.1754L36.8611 44.74L42.6145 46.7719L42.2795 47.1813L37.222 45.3764L37.196 45.4024L39.9759 49.9984ZM38.5208 48.2977L40.322 46.0946L40.6867 46.3923L38.8855 48.5954L38.5208 48.2977Z" fill="white"/>
<path d="M79.1013 118.516V99.6275C74.9515 99.0316 71.0066 97.4435 67.6014 94.9981C64.1961 92.5527 61.4309 89.322 59.5404 85.5802C57.6498 81.8383 56.6896 77.6956 56.7412 73.5036C56.7929 69.3116 57.8549 65.1938 59.8371 61.4997C61.8193 57.8056 64.6633 54.644 68.1278 52.2833C71.5922 49.9225 75.575 48.4322 79.7382 47.9387C83.9014 47.4452 88.1222 47.9631 92.0426 49.4485C95.963 50.9339 99.4673 53.343 102.258 56.4713C102.893 57.2112 103.212 58.1702 103.148 59.1427C103.083 60.1151 102.64 61.0237 101.914 61.6736C101.188 62.3235 100.236 62.6629 99.2622 62.6192C98.2886 62.5754 97.3709 62.152 96.7058 61.4396C94.741 59.2426 92.2826 57.5434 89.533 56.4818C86.7834 55.4202 83.8211 55.0265 80.8896 55.333C77.9582 55.6396 75.1414 56.6377 72.6709 58.2452C70.2004 59.8528 68.1469 62.0238 66.6791 64.5798C65.2113 67.1357 64.3713 70.0037 64.2281 72.9476C64.0849 75.8916 64.6426 78.8275 65.8553 81.5138C67.0681 84.2002 68.9012 86.5603 71.204 88.4C73.5068 90.2398 76.2134 91.5065 79.1013 92.0962V84.9965C79.1054 81.0467 80.6767 77.2599 83.4701 74.4675C86.2635 71.6751 90.0509 70.1052 94.0007 70.1024H105.174C106.161 70.1024 107.107 70.4944 107.805 71.1922C108.503 71.89 108.895 72.8364 108.895 73.8233C108.902 79.3993 107.119 84.8304 103.808 89.3168C100.496 93.8031 95.8315 97.1075 90.5008 98.7433C89.2107 99.1428 87.8908 99.4385 86.5536 99.6275V118.516H79.1013ZM94.0007 77.5494C92.026 77.5508 90.1326 78.3359 88.7363 79.7322C87.34 81.1285 86.555 83.0218 86.5536 84.9965V92.0699C87.147 91.9518 87.7337 91.8025 88.3114 91.6225C91.2147 90.7332 93.8555 89.1455 96.0026 86.9984C98.1496 84.8514 99.7374 82.2105 100.627 79.3072C100.806 78.7283 100.953 78.1441 101.074 77.5494H94.0007Z" fill="#6FCE1A"/>
</g>
<defs>
<clipPath id="clip0_416_7435">
<rect width="115.258" height="115.258" fill="white" transform="translate(81.5 0.182983) rotate(45)"/>
</clipPath>
</defs>
</svg>
