<svg width="60" height="51" viewBox="0 0 60 51" fill="none" xmlns="http://www.w3.org/2000/svg">
<circle cx="13.5" cy="7.73684" r="6.23684" stroke="#6FCE1A" stroke-width="2"/>
<path d="M7.57892 20.8948V49.5C7.57892 50.0523 8.02663 50.5 8.57892 50.5H12.5C13.0523 50.5 13.5 50.0523 13.5 49.5V34.0527" stroke="#6FCE1A" stroke-width="2"/>
<path d="M18.7631 20.8948V49.5C18.7631 50.0523 18.3154 50.5 17.7631 50.5H13.8421C13.2898 50.5 12.8421 50.0523 12.8421 49.5V34.0527" stroke="#6FCE1A" stroke-width="2"/>
<path d="M1 32.079V17.2896C1 16.7373 1.44772 16.2896 2 16.2896H4.94737" stroke="#6FCE1A" stroke-width="2"/>
<path d="M24.6842 32.079V17.2896C24.6842 16.7373 24.2365 16.2896 23.6842 16.2896H20.7368" stroke="#6FCE1A" stroke-width="2"/>
<circle cx="45.0789" cy="7.73684" r="6.23684" stroke="#6FCE1A" stroke-width="2"/>
<path d="M39.1579 37.342V49.4999C39.1579 50.0522 39.6056 50.4999 40.1579 50.4999H44.079C44.6312 50.4999 45.079 50.0522 45.079 49.4999V43.19" stroke="#6FCE1A" stroke-width="2"/>
<path d="M50.3421 37.342V49.4999C50.3421 50.0522 49.8944 50.4999 49.3421 50.4999H45.421C44.8688 50.4999 44.421 50.0522 44.421 49.4999V43.19" stroke="#6FCE1A" stroke-width="2"/>
<path d="M31.2632 30.1054L36.5263 18.9211" stroke="#6FCE1A" stroke-width="2"/>
<path d="M58.8948 30.1054L53.6316 18.9211" stroke="#6FCE1A" stroke-width="2"/>
<path d="M41.1316 21.5525L34.544 35.9253C34.2404 36.5877 34.7244 37.342 35.4531 37.342H43.1052" stroke="#6FCE1A" stroke-width="2"/>
<path d="M47.7105 21.5525L54.298 35.9253C54.6016 36.5877 54.1176 37.342 53.389 37.342H45.7368" stroke="#6FCE1A" stroke-width="2"/>
</svg>
