<svg width="34" height="48" viewBox="0 0 34 48" fill="none" xmlns="http://www.w3.org/2000/svg">
<path d="M1 1.5H32C32.5523 1.5 33 1.94772 33 2.5V45.5C33 46.0523 32.5523 46.5 32 46.5H1V1.5Z" stroke="#6FCE1A" stroke-width="2"/>
<circle cx="8.5" cy="9" r="3.5" stroke="#6FCE1A" stroke-width="2"/>
<line x1="4" y1="17.5" x2="17" y2="17.5" stroke="#6FCE1A" stroke-width="2"/>
<rect x="4.5" y="42" width="4" height="1" fill="#0F5156" stroke="#6FCE1A"/>
<path fill-rule="evenodd" clip-rule="evenodd" d="M34 32.5H21H19V34.5V47.5H21V34.5H34V32.5ZM34 36.5H25H23V38.5V47.5H25V38.5H34V36.5Z" fill="#6FCE1A"/>
<path fill-rule="evenodd" clip-rule="evenodd" d="M17.0079 0.5C17.0027 0.666021 17 0.832701 17 1C17 9.56041 23.9396 16.5 32.5 16.5C33.006 16.5 33.5064 16.4757 34 16.4284V14.4176C33.5075 14.472 33.007 14.5 32.5 14.5C25.0442 14.5 19 8.45584 19 1C19 0.832604 19.003 0.66592 19.0091 0.5H17.0079ZM22.0117 0.5C22.0039 0.665691 22 0.832387 22 1C22 6.79899 26.701 11.5 32.5 11.5C33.0093 11.5 33.5101 11.4637 34 11.3937V9.36807C33.5131 9.45476 33.0118 9.5 32.5 9.5C27.8056 9.5 24 5.69442 24 1C24 0.832153 24.0049 0.665441 24.0145 0.5H22.0117Z" fill="#6FCE1A"/>
</svg>
