<svg width="171" height="54" viewBox="0 0 171 54" fill="none" xmlns="http://www.w3.org/2000/svg">
<rect x="1.5" y="1.5" width="168" height="51" rx="6.5" fill="url(#paint0_radial_492_7343)" stroke="white" stroke-width="3"/>
<circle cx="144.375" cy="26.6249" r="10.8749" fill="#6FCE1A"/>
<path d="M133.875 37.125L135.375 30.75L140.25 35.25L133.875 37.125Z" fill="#6FCE1A"/>
<path fill-rule="evenodd" clip-rule="evenodd" d="M149.499 29.3819C149.199 29.233 147.731 28.515 147.458 28.415C147.185 28.316 146.986 28.267 146.786 28.565C146.587 28.861 146.015 29.5309 145.841 29.7289C145.666 29.9279 145.493 29.9519 145.194 29.8039C144.896 29.6539 143.933 29.3409 142.793 28.329C141.905 27.541 141.306 26.568 141.132 26.27C140.958 25.973 141.113 25.812 141.262 25.664C141.397 25.531 141.561 25.317 141.71 25.144C141.86 24.97 141.909 24.846 142.009 24.647C142.109 24.449 142.059 24.276 141.984 24.127C141.909 23.978 141.313 22.515 141.063 21.92C140.821 21.341 140.575 21.42 140.392 21.41C140.217 21.402 140.018 21.4 139.819 21.4C139.62 21.4 139.297 21.474 139.024 21.772C138.749 22.069 137.979 22.788 137.979 24.251C137.979 25.713 139.048 27.126 139.197 27.325C139.347 27.523 141.303 30.5249 144.298 31.8119C145.011 32.1179 145.567 32.3009 146 32.4369C146.715 32.6639 147.367 32.6319 147.881 32.5549C148.454 32.4699 149.647 31.8359 149.897 31.1419C150.145 30.4479 150.145 29.8529 150.07 29.7289C149.996 29.6049 149.797 29.5309 149.498 29.3819H149.499ZM144.051 36.7849H144.047C142.268 36.7852 140.521 36.3093 138.99 35.4069L138.629 35.1929L134.869 36.1749L135.873 32.5269L135.636 32.1529C134.642 30.5773 134.115 28.7537 134.118 26.893C134.12 21.443 138.575 17.009 144.055 17.009C146.707 17.009 149.201 18.039 151.076 19.907C152.001 20.8236 152.734 21.9136 153.233 23.1139C153.732 24.3142 153.986 25.6011 153.982 26.9C153.98 32.3499 149.525 36.7849 144.051 36.7849V36.7849ZM152.503 18.488C151.396 17.3789 150.079 16.4996 148.628 15.9008C147.177 15.3021 145.621 14.9959 144.05 15C137.464 15 132.102 20.335 132.1 26.892C132.099 28.988 132.649 31.0339 133.695 32.8369L132 38.9999L138.334 37.3459C140.087 38.296 142.05 38.7938 144.046 38.7939H144.051C150.636 38.7939 155.998 33.4589 156 26.901C156.005 25.3382 155.698 23.7901 155.098 22.346C154.498 20.902 153.616 19.5907 152.503 18.488" fill="white"/>
<path d="M20.0114 33H22.4716V28.1932H27.2045V26.1648H22.4716V23.392H27.7159V21.3636H20.0114V33ZM31.7045 33.1648C32.9943 33.1648 33.8295 32.6023 34.2557 31.7898H34.3239V33H36.6193V27.1136C36.6193 25.0341 34.858 24.1591 32.9148 24.1591C30.8239 24.1591 29.4489 25.1591 29.1136 26.75L31.3523 26.9318C31.517 26.3523 32.0341 25.9261 32.9034 25.9261C33.7273 25.9261 34.1989 26.3409 34.1989 27.0568V27.0909C34.1989 27.6534 33.6023 27.7273 32.0852 27.875C30.358 28.0341 28.8068 28.6136 28.8068 30.5625C28.8068 32.2898 30.0398 33.1648 31.7045 33.1648ZM32.3977 31.4943C31.6534 31.4943 31.1193 31.1477 31.1193 30.483C31.1193 29.8011 31.6818 29.4659 32.5341 29.3466C33.0625 29.2727 33.9261 29.1477 34.2159 28.9545V29.8807C34.2159 30.7955 33.4602 31.4943 32.3977 31.4943ZM40.9176 21.3636H38.4972V33H40.9176V21.3636ZM46.8338 33.1705C48.9929 33.1705 50.4474 32.1193 50.7884 30.5L48.5497 30.3523C48.3054 31.017 47.6804 31.3636 46.8736 31.3636C45.6634 31.3636 44.8963 30.5625 44.8963 29.2614V29.2557H50.8395V28.5909C50.8395 25.625 49.044 24.1591 46.7372 24.1591C44.169 24.1591 42.5043 25.983 42.5043 28.6761C42.5043 31.4432 44.1463 33.1705 46.8338 33.1705ZM44.8963 27.7557C44.9474 26.7614 45.7031 25.9659 46.777 25.9659C47.8281 25.9659 48.5554 26.7159 48.5611 27.7557H44.8963ZM60.0653 33.1705C62.3892 33.1705 63.8494 31.8068 63.9631 29.8011H61.679C61.5369 30.733 60.9233 31.2557 60.0938 31.2557C58.9631 31.2557 58.2301 30.3068 58.2301 28.6364C58.2301 26.9886 58.9688 26.0455 60.0938 26.0455C60.9801 26.0455 61.5483 26.6307 61.679 27.5H63.9631C63.8608 25.483 62.3324 24.1591 60.054 24.1591C57.4062 24.1591 55.7699 25.9943 55.7699 28.6705C55.7699 31.3239 57.3778 33.1705 60.0653 33.1705ZM69.456 33.1705C72.1037 33.1705 73.7514 31.358 73.7514 28.6705C73.7514 25.9659 72.1037 24.1591 69.456 24.1591C66.8082 24.1591 65.1605 25.9659 65.1605 28.6705C65.1605 31.358 66.8082 33.1705 69.456 33.1705ZM69.4673 31.2955C68.2457 31.2955 67.6207 30.1761 67.6207 28.6534C67.6207 27.1307 68.2457 26.0057 69.4673 26.0057C70.6662 26.0057 71.2912 27.1307 71.2912 28.6534C71.2912 30.1761 70.6662 31.2955 69.4673 31.2955ZM77.7457 27.9545C77.7514 26.8295 78.4219 26.1705 79.3991 26.1705C80.3707 26.1705 80.956 26.8068 80.9503 27.875V33H83.3707V27.4432C83.3707 25.4091 82.1776 24.1591 80.3594 24.1591C79.0639 24.1591 78.1264 24.7955 77.7344 25.8125H77.6321V24.2727H75.3253V33H77.7457V27.9545ZM89.2216 33.1705C91.8693 33.1705 93.517 31.358 93.517 28.6705C93.517 25.9659 91.8693 24.1591 89.2216 24.1591C86.5739 24.1591 84.9261 25.9659 84.9261 28.6705C84.9261 31.358 86.5739 33.1705 89.2216 33.1705ZM89.233 31.2955C88.0114 31.2955 87.3864 30.1761 87.3864 28.6534C87.3864 27.1307 88.0114 26.0057 89.233 26.0057C90.4318 26.0057 91.0568 27.1307 91.0568 28.6534C91.0568 30.1761 90.4318 31.2955 89.233 31.2955ZM102.352 26.7614C102.136 25.1534 100.841 24.1591 98.6364 24.1591C96.4034 24.1591 94.9318 25.1932 94.9375 26.875C94.9318 28.1818 95.7557 29.0284 97.4602 29.3693L98.9716 29.6705C99.733 29.8239 100.08 30.1023 100.091 30.5398C100.08 31.0568 99.517 31.4261 98.6705 31.4261C97.8068 31.4261 97.233 31.0568 97.0852 30.3466L94.7045 30.4716C94.9318 32.142 96.3523 33.1705 98.6648 33.1705C100.926 33.1705 102.545 32.017 102.551 30.2955C102.545 29.0341 101.722 28.2784 100.028 27.9318L98.4489 27.6136C97.6364 27.4375 97.3352 27.1591 97.3409 26.7386C97.3352 26.2159 97.9261 25.875 98.6761 25.875C99.517 25.875 100.017 26.3352 100.136 26.8977L102.352 26.7614ZM108.018 33.1705C110.342 33.1705 111.803 31.8068 111.916 29.8011H109.632C109.49 30.733 108.876 31.2557 108.047 31.2557C106.916 31.2557 106.183 30.3068 106.183 28.6364C106.183 26.9886 106.922 26.0455 108.047 26.0455C108.933 26.0455 109.501 26.6307 109.632 27.5H111.916C111.814 25.483 110.286 24.1591 108.007 24.1591C105.359 24.1591 103.723 25.9943 103.723 28.6705C103.723 31.3239 105.331 33.1705 108.018 33.1705ZM117.409 33.1705C120.057 33.1705 121.705 31.358 121.705 28.6705C121.705 25.9659 120.057 24.1591 117.409 24.1591C114.761 24.1591 113.114 25.9659 113.114 28.6705C113.114 31.358 114.761 33.1705 117.409 33.1705ZM117.42 31.2955C116.199 31.2955 115.574 30.1761 115.574 28.6534C115.574 27.1307 116.199 26.0057 117.42 26.0057C118.619 26.0057 119.244 27.1307 119.244 28.6534C119.244 30.1761 118.619 31.2955 117.42 31.2955Z" fill="white"/>
<defs>
<radialGradient id="paint0_radial_492_7343" cx="0" cy="0" r="1" gradientUnits="userSpaceOnUse" gradientTransform="translate(5.11979 5.21882) rotate(15.5195) scale(167.379 852.588)">
<stop stop-color="#0F5641"/>
<stop offset="1" stop-color="#0F5156"/>
</radialGradient>
</defs>
</svg>
