<svg width="50" height="51" viewBox="0 0 50 51" fill="none" xmlns="http://www.w3.org/2000/svg">
<path d="M36 49.5V39.5" stroke="#6FCE1A" stroke-width="2"/>
<path d="M28.5 39H40.6386C44.45 39 47.561 35.9507 47.6372 32.14L48 14" stroke="#6FCE1A" stroke-width="2"/>
<path d="M20.5 48.5L23.0825 39.1385C23.9199 36.1028 26.6814 34 29.8304 34H35.3682C39.0873 34 42.1572 31.0916 42.358 27.3778L42.8362 18.5295C42.9307 16.7815 41.7472 15.2216 40.0383 14.8419V14.8419C39.0582 14.624 38.0316 14.8279 37.209 15.4037L30.3077 20.2346C29.1311 21.0582 27.7296 21.5 26.2934 21.5H20.5" stroke="#6FCE1A" stroke-width="2"/>
<path d="M18 21.5H9.68407C9.27165 21.5 8.90154 21.2468 8.75206 20.8624L5.5 12.5" stroke="#6FCE1A" stroke-width="2"/>
<path d="M1 25.5H28" stroke="#6FCE1A" stroke-width="2"/>
<circle cx="37.5" cy="6" r="4.5" stroke="#6FCE1A" stroke-width="2"/>
</svg>
