<svg width="62" height="62" viewBox="0 0 62 62" fill="none" xmlns="http://www.w3.org/2000/svg">
<circle cx="31" cy="31" r="31" fill="#0F5156"/>
<path d="M28.7173 54.5V40.5245C26.1716 40.1611 23.7518 39.1954 21.6631 37.7092C19.5744 36.2229 17.8784 34.26 16.7187 31.9868C15.559 29.7135 14.9699 27.1969 15.0012 24.6503C15.0325 22.1037 15.6834 19.6021 16.8987 17.3575C18.114 15.1129 19.8578 13.1914 21.9825 11.756C24.1071 10.3206 26.5499 9.41357 29.1039 9.11169C31.6578 8.80982 34.2476 9.12204 36.6538 10.0219C39.0599 10.9218 41.2115 12.3827 42.9263 14.281C43.1277 14.5024 43.2831 14.7609 43.3836 15.0417C43.4842 15.3226 43.5278 15.6203 43.5122 15.9179C43.4965 16.2154 43.4218 16.507 43.2923 16.776C43.1628 17.045 42.9811 17.2861 42.7576 17.4855C42.534 17.6849 42.2729 17.8388 41.9893 17.9384C41.7057 18.0379 41.405 18.0812 41.1045 18.0657C40.804 18.0501 40.5095 17.9762 40.2378 17.848C39.9662 17.7198 39.7227 17.5398 39.5213 17.3184C38.3154 15.9825 36.8064 14.9491 35.1184 14.3034C33.4304 13.6577 31.6117 13.4181 29.8119 13.6042C28.0121 13.7904 26.2827 14.397 24.766 15.3742C23.2492 16.3514 21.9884 17.6712 21.0873 19.2251C20.1863 20.779 19.6707 22.5225 19.5831 24.3122C19.4954 26.1019 19.8381 27.8866 20.5831 29.5196C21.328 31.1525 22.4539 32.587 23.868 33.7049C25.2822 34.8229 26.9442 35.5924 28.7173 35.9501V31.6491C28.7206 29.2495 29.6847 26.949 31.3984 25.2522C33.112 23.5554 35.4352 22.6007 37.8587 22.5975H44.7177C45.3236 22.5991 45.9041 22.8386 46.3319 23.2633C46.7597 23.6881 47 24.2635 47 24.8635C46.9959 28.2506 45.8948 31.5471 43.8585 34.2687C41.8222 36.9903 38.958 38.9935 35.6868 39.9839C34.8849 40.2293 34.0642 40.4102 33.2328 40.5245V54.5H28.7173ZM37.8587 27.0929C36.647 27.0945 35.4853 27.5719 34.6285 28.4203C33.7717 29.2687 33.2896 30.4189 33.288 31.6187V35.9198C33.6523 35.8465 34.0127 35.7553 34.3678 35.6464C36.149 35.1047 37.7692 34.1394 39.0868 32.8348C40.4043 31.5301 41.3792 29.9259 41.9263 28.1621C42.037 27.8107 42.1291 27.4538 42.2023 27.0929H37.8587Z" fill="#6FCE1A"/>
</svg>
